<svg xmlns="http://www.w3.org/2000/svg" width="22.398" height="15.085" viewBox="0 0 22.398 15.085">
  <g id="Group_3007" data-name="Group 3007" transform="translate(-201.25 -45.25)">
    <g id="Group_3005" data-name="Group 3005" transform="translate(202 46)">
      <path id="Path_1014" data-name="Path 1014" d="M-1621.971,1238.519v-12.558h2.776v-1.777h2.347v1.777h3.856v-1.777h2.569v1.777h2.665v3.892h6.684v8.666" transform="translate(1621.971 -1224.185)" fill="none" stroke="#242424" stroke-linejoin="round" stroke-width="1.5"/>
      <path id="Path_1016" data-name="Path 1016" d="M-1619.521,1196.768V1186" transform="translate(1622.255 -1182.433)" fill="none" stroke="#242424" stroke-width="1.5"/>
      <path id="Path_1015" data-name="Path 1015" d="M-1620.051,1197.8V1191" transform="translate(1634.254 -1183.471)" fill="none" stroke="#242424" stroke-width="1.5"/>
      <rect id="Rectangle_3461" data-name="Rectangle 3461" width="3.17" height="3.17" transform="translate(4.732 3.567)" fill="#00779c"/>
      <rect id="Rectangle_3462" data-name="Rectangle 3462" width="3.17" height="3.17" transform="translate(8.695 3.567)" fill="#00779c"/>
      <rect id="Rectangle_3454" data-name="Rectangle 3454" width="3.17" height="3.17" transform="translate(4.732 7.53)" fill="#00779c"/>
      <rect id="Rectangle_3455" data-name="Rectangle 3455" width="3.17" height="3.17" transform="translate(8.695 7.53)" fill="#00779c"/>
      <rect id="Rectangle_3456" data-name="Rectangle 3456" width="3.17" height="3.17" transform="translate(15.828 7.53)" fill="#00779c"/>
      <path id="Subtraction_7" data-name="Subtraction 7" d="M3.171,2.774H0V0H3.171V2.773Z" transform="translate(4.732 11.492)" fill="#00779c"/>
      <path id="Subtraction_8" data-name="Subtraction 8" d="M3.171,2.774H0V0H3.171V2.773Z" transform="translate(8.695 11.492)" fill="#00779c"/>
      <path id="Subtraction_6" data-name="Subtraction 6" d="M3.171,2.774H0V0H3.171V2.773Z" transform="translate(15.828 11.492)" fill="#00779c"/>
    </g>
  </g>
</svg>
