<svg xmlns="http://www.w3.org/2000/svg" xmlns:xlink="http://www.w3.org/1999/xlink" width="222" height="152" viewBox="0 0 222 152">
  <defs>
    <clipPath id="clip-CleverStaff_Logo_1">
      <rect width="222" height="152"/>
    </clipPath>
  </defs>
  <g id="CleverStaff_Logo_1" data-name="CleverStaff_Logo – 1" clip-path="url(#clip-CleverStaff_Logo_1)">
    <g id="Group_15" data-name="Group 15" transform="translate(-1642 -95.358)">
      <path id="Path_45" data-name="Path 45" d="M1.92-13.706a15.25,15.25,0,0,1,1.834-7.507,13.3,13.3,0,0,1,5.012-5.167,13.828,13.828,0,0,1,7.09-1.851,14.436,14.436,0,0,1,8.17,2.258,12.831,12.831,0,0,1,4.951,6.368H25.636a9.788,9.788,0,0,0-3.729-4.516,10.87,10.87,0,0,0-6.051-1.627,10.975,10.975,0,0,0-5.644,1.465A10.18,10.18,0,0,0,6.28-20.074a13.625,13.625,0,0,0-1.426,6.368A13.5,13.5,0,0,0,6.28-7.359a10.208,10.208,0,0,0,3.932,4.191A10.975,10.975,0,0,0,15.856-1.7a10.974,10.974,0,0,0,6.051-1.607,9.7,9.7,0,0,0,3.729-4.455h3.341A12.7,12.7,0,0,1,24.006-1.46,14.559,14.559,0,0,1,15.856.778a13.828,13.828,0,0,1-7.09-1.851A13.338,13.338,0,0,1,3.754-6.22,15.135,15.135,0,0,1,1.92-13.706ZM37.494-29.574V.534H34.641V-29.574ZM64.1-11.713q0,1.465-.081,2.238H45.562a8.931,8.931,0,0,0,1.222,4.313,7.193,7.193,0,0,0,2.893,2.706,8.477,8.477,0,0,0,3.912.915,7.865,7.865,0,0,0,4.666-1.343A6.3,6.3,0,0,0,60.761-6.5h3.015A9.406,9.406,0,0,1,60.293-1.2,10.665,10.665,0,0,1,53.59.86a11.235,11.235,0,0,1-5.623-1.4,9.919,9.919,0,0,1-3.892-3.987,12.449,12.449,0,0,1-1.406-6.042,12.719,12.719,0,0,1,1.385-6.062,9.622,9.622,0,0,1,3.871-3.987,11.449,11.449,0,0,1,5.664-1.383,10.883,10.883,0,0,1,5.562,1.383A9.567,9.567,0,0,1,62.819-16.9,10.6,10.6,0,0,1,64.1-11.713Zm-2.893-.081a7.883,7.883,0,0,0-1-4.231,6.734,6.734,0,0,0-2.832-2.645,8.635,8.635,0,0,0-3.912-.9,7.778,7.778,0,0,0-5.42,2.034,8.119,8.119,0,0,0-2.486,5.737ZM77.224-2.233l7.5-19.448h3.015L78.813.534H75.594L66.67-21.681h3.056Zm34.514-9.48q0,1.465-.081,2.238H93.2A8.931,8.931,0,0,0,94.42-5.162a7.193,7.193,0,0,0,2.893,2.706,8.477,8.477,0,0,0,3.912.915,7.865,7.865,0,0,0,4.666-1.343A6.3,6.3,0,0,0,108.4-6.5h3.015a9.406,9.406,0,0,1-3.484,5.31,10.665,10.665,0,0,1-6.7,2.055A11.235,11.235,0,0,1,95.6-.544,9.919,9.919,0,0,1,91.71-4.532,12.449,12.449,0,0,1,90.3-10.574a12.719,12.719,0,0,1,1.385-6.062,9.622,9.622,0,0,1,3.871-3.987,11.449,11.449,0,0,1,5.664-1.383,10.883,10.883,0,0,1,5.562,1.383,9.567,9.567,0,0,1,3.667,3.723A10.6,10.6,0,0,1,111.738-11.713Zm-2.893-.081a7.883,7.883,0,0,0-1-4.231,6.734,6.734,0,0,0-2.832-2.645,8.635,8.635,0,0,0-3.912-.9,7.778,7.778,0,0,0-5.42,2.034A8.12,8.12,0,0,0,93.2-11.794Zm10.961-5.94a6.964,6.964,0,0,1,2.873-3.214,9.214,9.214,0,0,1,4.747-1.139v2.97h-.774a7.2,7.2,0,0,0-4.971,1.668q-1.874,1.668-1.874,5.574V.534h-2.852V-21.681h2.852ZM141.077.819A13.527,13.527,0,0,1,135.719-.2a8.8,8.8,0,0,1-3.769-2.929,7.705,7.705,0,0,1-1.426-4.516h6.112a3.944,3.944,0,0,0,1.243,2.767,4.407,4.407,0,0,0,3.077,1.017,4.737,4.737,0,0,0,3.138-.956,3.108,3.108,0,0,0,1.141-2.5,2.889,2.889,0,0,0-.774-2.075,5.425,5.425,0,0,0-1.936-1.282,32.066,32.066,0,0,0-3.2-1.038,34.3,34.3,0,0,1-4.5-1.607,7.884,7.884,0,0,1-2.975-2.4,6.834,6.834,0,0,1-1.243-4.292,7.666,7.666,0,0,1,1.263-4.394,8.032,8.032,0,0,1,3.545-2.868,12.915,12.915,0,0,1,5.216-1,11.328,11.328,0,0,1,7.151,2.136,7.915,7.915,0,0,1,3.036,5.961h-6.275A3.253,3.253,0,0,0,143.3-22.6a4.688,4.688,0,0,0-3.077-.956,3.965,3.965,0,0,0-2.669.854,3.087,3.087,0,0,0-1,2.482,2.564,2.564,0,0,0,.754,1.892,5.75,5.75,0,0,0,1.874,1.221q1.121.468,3.158,1.078a33.21,33.21,0,0,1,4.523,1.627,8.121,8.121,0,0,1,3.015,2.441,6.774,6.774,0,0,1,1.263,4.272,8.027,8.027,0,0,1-1.182,4.231A8.338,8.338,0,0,1,146.5-.341,11.829,11.829,0,0,1,141.077.819Zm21.638-18.146v10.9a2.153,2.153,0,0,0,.55,1.648,2.706,2.706,0,0,0,1.854.509h2.649v4.8h-3.586q-7.213,0-7.213-7V-17.328H154.28v-4.679h2.689v-5.574h5.746v5.574h5.053v4.679Zm7.7,6.51a13.03,13.03,0,0,1,1.365-6.062,10,10,0,0,1,3.708-4.069,9.884,9.884,0,0,1,5.236-1.424,9.209,9.209,0,0,1,4.421,1.017,8.968,8.968,0,0,1,3.036,2.563v-3.214h5.746V.534h-5.746v-3.3a8.482,8.482,0,0,1-3.036,2.624A9.3,9.3,0,0,1,180.685.9a9.6,9.6,0,0,1-5.2-1.465,10.256,10.256,0,0,1-3.708-4.13A13.246,13.246,0,0,1,170.417-10.818Zm17.767.081a7.3,7.3,0,0,0-.815-3.56,5.741,5.741,0,0,0-2.2-2.278,5.888,5.888,0,0,0-2.975-.793,5.785,5.785,0,0,0-2.934.773,5.825,5.825,0,0,0-2.18,2.258,7.065,7.065,0,0,0-.835,3.519,7.3,7.3,0,0,0,.835,3.56,6.009,6.009,0,0,0,2.2,2.34,5.6,5.6,0,0,0,2.914.814,5.888,5.888,0,0,0,2.975-.793,5.741,5.741,0,0,0,2.2-2.278A7.3,7.3,0,0,0,188.183-10.736Zm21.678-6.591h-3.953V.534h-5.786V-17.328h-2.567v-4.679h2.567v-1.139q0-4.15,2.363-6.1t7.131-1.831v4.8a4.239,4.239,0,0,0-2.893.692,3.46,3.46,0,0,0-.815,2.645v.936h3.953Zm14.058,0h-3.953V.534h-5.786V-17.328h-2.567v-4.679h2.567v-1.139q0-4.15,2.363-6.1t7.131-1.831v4.8a4.239,4.239,0,0,0-2.893.692,3.46,3.46,0,0,0-.815,2.645v.936h3.953Z" transform="translate(1640.08 246.458)" fill="#fff"/>
      <path id="Subtraction_4" data-name="Subtraction 4" d="M52.5,105A52.5,52.5,0,0,1,15.377,15.377,52.5,52.5,0,0,1,89.623,89.623,52.157,52.157,0,0,1,52.5,105ZM49.213,42.278h0L41.937,84.7,52.5,96.235,63.06,84.7,55.781,42.278H49.213Zm3.258-12.786L47.8,33.5l1.368,5.565h6.615L57.146,33.5ZM77.382,17.125,55.437,27.657l11.891,10.2Zm-49.765,0L37.671,37.853l11.891-10.2ZM52.5,8.749a50.546,50.546,0,0,0-22.641,5.284L52.5,25.515,75.141,14.036A50.521,50.521,0,0,0,52.5,8.749Z" transform="translate(1699.958 95.358)" fill="#fff"/>
    </g>
  </g>
</svg>
