<svg xmlns="http://www.w3.org/2000/svg" xmlns:xlink="http://www.w3.org/1999/xlink" width="305" height="48" viewBox="0 0 305 48">
  <defs>
    <clipPath id="clip-CleverStaff_Logo">
      <rect width="305" height="48"/>
    </clipPath>
  </defs>
  <g id="CleverStaff_Logo" clip-path="url(#clip-CleverStaff_Logo)">
    <g id="Group_11" data-name="Group 11" transform="translate(-1661.556 -1212.214)">
      <path id="Path_45" data-name="Path 45" d="M1.92-11.9a16.852,16.852,0,0,1,2.021-8.286,14.67,14.67,0,0,1,5.524-5.7,15.221,15.221,0,0,1,7.814-2.043,15.892,15.892,0,0,1,9,2.492,14.159,14.159,0,0,1,5.456,7.028H28.056A10.8,10.8,0,0,0,23.947-23.4a11.965,11.965,0,0,0-6.669-1.8,12.081,12.081,0,0,0-6.22,1.617,11.229,11.229,0,0,0-4.334,4.648A15.057,15.057,0,0,0,5.153-11.9,14.921,14.921,0,0,0,6.725-4.9,11.26,11.26,0,0,0,11.059-.272a12.081,12.081,0,0,0,6.22,1.617A12.08,12.08,0,0,0,23.947-.429a10.7,10.7,0,0,0,4.109-4.917h3.682A14.011,14.011,0,0,1,26.26,1.614a16.027,16.027,0,0,1-8.982,2.47A15.221,15.221,0,0,1,9.465,2.04,14.711,14.711,0,0,1,3.941-3.64,16.725,16.725,0,0,1,1.92-11.9Zm39.2-17.514V3.814H37.981V-29.418ZM70.449-9.7q0,1.617-.09,2.47H50.016a9.869,9.869,0,0,0,1.347,4.76A7.932,7.932,0,0,0,54.552.514a9.33,9.33,0,0,0,4.311,1.01A8.658,8.658,0,0,0,64.005.042a6.959,6.959,0,0,0,2.762-4H70.09a10.383,10.383,0,0,1-3.84,5.86,11.741,11.741,0,0,1-7.387,2.268,12.366,12.366,0,0,1-6.2-1.549,10.94,10.94,0,0,1-4.289-4.4,13.758,13.758,0,0,1-1.549-6.669,14.056,14.056,0,0,1,1.527-6.691,10.613,10.613,0,0,1,4.266-4.4,12.6,12.6,0,0,1,6.242-1.527,11.979,11.979,0,0,1,6.13,1.527,10.552,10.552,0,0,1,4.042,4.109A11.719,11.719,0,0,1,70.449-9.7Zm-3.188-.09a8.711,8.711,0,0,0-1.1-4.67,7.425,7.425,0,0,0-3.121-2.919,9.5,9.5,0,0,0-4.311-.988,8.565,8.565,0,0,0-5.973,2.245,8.968,8.968,0,0,0-2.739,6.332ZM84.91.761l8.263-21.466H96.5L86.661,3.814H83.114l-9.835-24.52h3.368ZM122.947-9.7q0,1.617-.09,2.47H102.514a9.868,9.868,0,0,0,1.347,4.76A7.932,7.932,0,0,0,107.049.514a9.33,9.33,0,0,0,4.311,1.01A8.658,8.658,0,0,0,116.5.042a6.958,6.958,0,0,0,2.762-4h3.323a10.383,10.383,0,0,1-3.84,5.86,11.741,11.741,0,0,1-7.387,2.268,12.366,12.366,0,0,1-6.2-1.549,10.94,10.94,0,0,1-4.289-4.4,13.757,13.757,0,0,1-1.549-6.669,14.056,14.056,0,0,1,1.527-6.691,10.613,10.613,0,0,1,4.266-4.4,12.6,12.6,0,0,1,6.242-1.527,11.979,11.979,0,0,1,6.13,1.527,10.552,10.552,0,0,1,4.042,4.109A11.719,11.719,0,0,1,122.947-9.7Zm-3.188-.09a8.711,8.711,0,0,0-1.1-4.67,7.425,7.425,0,0,0-3.121-2.919,9.5,9.5,0,0,0-4.311-.988,8.565,8.565,0,0,0-5.973,2.245,8.968,8.968,0,0,0-2.739,6.332Zm12.08-6.557A7.682,7.682,0,0,1,135-19.9a10.142,10.142,0,0,1,5.232-1.257v3.278h-.853a7.928,7.928,0,0,0-5.479,1.841q-2.066,1.841-2.066,6.152v13.7H128.7v-24.52h3.144ZM155.281,4.129a14.888,14.888,0,0,1-5.905-1.123,9.7,9.7,0,0,1-4.154-3.233,8.514,8.514,0,0,1-1.572-4.985h6.736a4.356,4.356,0,0,0,1.37,3.054,4.853,4.853,0,0,0,3.391,1.123A5.216,5.216,0,0,0,158.6-2.091a3.432,3.432,0,0,0,1.257-2.762,3.191,3.191,0,0,0-.853-2.29,5.978,5.978,0,0,0-2.133-1.415A35.3,35.3,0,0,0,153.349-9.7a37.757,37.757,0,0,1-4.962-1.774,8.692,8.692,0,0,1-3.278-2.65,7.551,7.551,0,0,1-1.37-4.738,8.471,8.471,0,0,1,1.392-4.85,8.855,8.855,0,0,1,3.907-3.166,14.215,14.215,0,0,1,5.748-1.1,12.471,12.471,0,0,1,7.881,2.358,8.741,8.741,0,0,1,3.346,6.579H159.1a3.592,3.592,0,0,0-1.37-2.672,5.161,5.161,0,0,0-3.391-1.055,4.366,4.366,0,0,0-2.941.943,3.409,3.409,0,0,0-1.1,2.739A2.832,2.832,0,0,0,151.127-17a6.336,6.336,0,0,0,2.066,1.347q1.235.516,3.48,1.19a36.563,36.563,0,0,1,4.985,1.8,8.952,8.952,0,0,1,3.323,2.694,7.485,7.485,0,0,1,1.392,4.715,8.87,8.87,0,0,1-1.3,4.67,9.194,9.194,0,0,1-3.817,3.435A13.02,13.02,0,0,1,155.281,4.129ZM179.127-15.9V-3.865a2.379,2.379,0,0,0,.606,1.819,2.978,2.978,0,0,0,2.043.561H184.7v5.3h-3.952q-7.949,0-7.949-7.724V-15.9h-2.964v-5.164h2.964v-6.152h6.332v6.152H184.7V-15.9Zm8.488,7.185a14.4,14.4,0,0,1,1.5-6.691,11.026,11.026,0,0,1,4.087-4.491,10.88,10.88,0,0,1,5.771-1.572,10.137,10.137,0,0,1,4.873,1.123,9.887,9.887,0,0,1,3.346,2.829v-3.548h6.332V3.814h-6.332V.177a9.352,9.352,0,0,1-3.346,2.9,10.236,10.236,0,0,1-4.917,1.145A10.573,10.573,0,0,1,193.205,2.6a11.314,11.314,0,0,1-4.087-4.558A14.639,14.639,0,0,1,187.614-8.715Zm19.58.09a8.064,8.064,0,0,0-.9-3.929,6.333,6.333,0,0,0-2.425-2.515,6.481,6.481,0,0,0-3.278-.876,6.367,6.367,0,0,0-3.233.853,6.425,6.425,0,0,0-2.4,2.492,7.807,7.807,0,0,0-.921,3.885,8.065,8.065,0,0,0,.921,3.929A6.628,6.628,0,0,0,197.382-2.2a6.16,6.16,0,0,0,3.211.9,6.481,6.481,0,0,0,3.278-.876A6.333,6.333,0,0,0,206.3-4.7,8.064,8.064,0,0,0,207.194-8.625ZM231.085-15.9h-4.356V3.814h-6.377V-15.9h-2.829v-5.164h2.829v-1.257q0-4.581,2.6-6.736t7.859-2.021v5.3a4.666,4.666,0,0,0-3.188.763,3.823,3.823,0,0,0-.9,2.919v1.033h4.356Zm15.493,0h-4.356V3.814h-6.377V-15.9h-2.829v-5.164h2.829v-1.257q0-4.581,2.6-6.736t7.859-2.021v5.3a4.666,4.666,0,0,0-3.188.763,3.823,3.823,0,0,0-.9,2.919v1.033h4.356Z" transform="translate(1719.978 1249.141)" fill="#00779c"/>
      <path id="Subtraction_4" data-name="Subtraction 4" d="M24,48A24,24,0,0,1,7.029,7.029,24,24,0,0,1,40.971,40.971,23.843,23.843,0,0,1,24,48ZM22.5,19.327h0L19.171,38.722,24,43.993l4.829-5.272L25.5,19.327h-3Zm1.489-5.845L21.85,15.314l.625,2.544H25.5l.625-2.544ZM35.375,7.829,25.343,12.643,30.779,17.3Zm-22.75,0,4.6,9.475,5.436-4.661ZM24,4a23.107,23.107,0,0,0-10.35,2.416L24,11.664,34.35,6.416A23.1,23.1,0,0,0,24,4Z" transform="translate(1661.556 1212.214)" fill="#00779c"/>
    </g>
  </g>
</svg>
