<svg xmlns="http://www.w3.org/2000/svg" xmlns:xlink="http://www.w3.org/1999/xlink" width="85" height="26" viewBox="0 0 85 26">
  <defs>
    <clipPath id="clip-path">
      <rect id="Rectangle_2837" data-name="Rectangle 2837" width="85" height="17.707" fill="#fff"/>
    </clipPath>
  </defs>
  <g id="Group_12426" data-name="Group 12426" transform="translate(-4428 19616.293)">
    <g id="Group_12426-2" data-name="Group 12426" transform="translate(4428 -19608)" clip-path="url(#clip-path)">
      <path id="Path_1332" data-name="Path 1332" d="M10.559,12.142a.147.147,0,0,0-.19.092L9.025,16.068l-1.34-3.834a.151.151,0,0,0-.193-.092L3.656,13.483l2.162-3.44a.151.151,0,0,0-.046-.209L2.33,7.673l4.038-.454A.152.152,0,0,0,6.5,7.052L6.045,3.014,8.918,5.888a.151.151,0,0,0,.214,0l2.873-2.873L11.55,7.052a.151.151,0,0,0,.133.167l4.038.454L12.279,9.835a.151.151,0,0,0-.046.209l2.162,3.44Zm7.159-2.525-.876-1.4A2.357,2.357,0,0,1,16.493,6.7l.184-1.64a2.162,2.162,0,0,0-1.908-2.392l-1.64-.186A2.349,2.349,0,0,1,11.723,1.8L10.555.633a2.166,2.166,0,0,0-3.061,0L6.327,1.8a2.349,2.349,0,0,1-1.406.677l-1.64.186A2.162,2.162,0,0,0,1.373,5.056L1.557,6.7a2.374,2.374,0,0,1-.346,1.522l-.879,1.4a2.163,2.163,0,0,0,.68,2.983l1.4.878a2.376,2.376,0,0,1,.974,1.22l.545,1.559a2.163,2.163,0,0,0,2.756,1.327l1.559-.546a2.382,2.382,0,0,1,1.562,0l1.559.546a2.163,2.163,0,0,0,2.756-1.327l.545-1.559a2.376,2.376,0,0,1,.974-1.22l1.4-.878a2.163,2.163,0,0,0,.68-2.983" transform="translate(0 0)" fill="#b1ff13"/>
      <path id="Path_1333" data-name="Path 1333" d="M114.973,6.362h3.232v.356l-4.183,5.158,1.806,2.8c.618.9,1,1.331,1.878,1.331a2.631,2.631,0,0,0,1.426-.428l1.046,2.02A4.046,4.046,0,0,1,117.3,18.65a4.275,4.275,0,0,1-3.683-2.187l-2.425-3.9v5.823h-2.923V1.205h2.923V11.33Z" transform="translate(-84.731 -0.943)" fill="#fff"/>
      <path id="Path_1334" data-name="Path 1334" d="M166.962,5.422h2.923V17.448h-2.923ZM168.435,0a1.879,1.879,0,0,1,1.949,1.854,1.86,1.86,0,0,1-1.949,1.83,1.819,1.819,0,0,1-1.9-1.83A1.838,1.838,0,0,1,168.435,0" transform="translate(-130.327 -0.002)" fill="#fff"/>
      <path id="Path_1335" data-name="Path 1335" d="M190.593,32.186a2.514,2.514,0,0,0,2.567,1.735c.856,0,1.806-.309,1.806-1.259,0-.618-.57-.975-1.307-1.283l-1.759-.666c-2.4-.9-3.018-2.258-3.018-3.351,0-2.234,1.9-3.636,4.4-3.636a4.137,4.137,0,0,1,4.207,2.686l-2.353.856a1.811,1.811,0,0,0-1.83-1.236,1.41,1.41,0,0,0-1.569,1.259c0,.666.594,1,1.26,1.236l1.783.642c2.567.856,3.066,2.4,3.066,3.446,0,2.377-2.21,3.66-4.706,3.66-1.949,0-4.159-.808-4.848-3.113Z" transform="translate(-147.351 -18.567)" fill="#fff"/>
      <path id="Path_1336" data-name="Path 1336" d="M247.093,29.381c0-2.091-.832-3.185-2.234-3.185-1.331,0-2.638,1.022-2.709,3.66v6.156h-2.924V23.986h2.924v2.02a3.747,3.747,0,0,1,3.541-2.282,3.9,3.9,0,0,1,3.755,2.258,4.039,4.039,0,0,1,3.945-2.258c3.113,0,4.468,2.162,4.468,5.632v6.655h-2.924V29.381c0-2.091-.831-3.185-2.234-3.185-1.331,0-2.638,1.022-2.709,3.66v6.156h-2.9Z" transform="translate(-187.214 -18.567)" fill="#fff"/>
      <path id="Path_1337" data-name="Path 1337" d="M337.975,33.824a3.469,3.469,0,0,0,3.589-3.732,3.618,3.618,0,0,0-3.66-3.921c-2.21,0-3.47,1.735-3.47,3.8a3.557,3.557,0,0,0,3.542,3.85m6.441-9.839V36.011h-2.923V34.2a4.778,4.778,0,0,1-4.112,2.068c-3.565,0-5.894-2.8-5.894-6.322,0-3.4,2.234-6.227,5.918-6.227a4.866,4.866,0,0,1,4.088,2.044V23.985Z" transform="translate(-259.415 -18.565)" fill="#fff"/>
    </g>
    <text id="NEWS" transform="translate(4490 -19607.293)" fill="#fff" font-size="8" font-family="SegoeUI-Italic, Segoe UI" font-style="italic"><tspan x="0" y="0">NEWS</tspan></text>
  </g>
</svg>
