<svg xmlns="http://www.w3.org/2000/svg" xmlns:xlink="http://www.w3.org/1999/xlink" width="126.959" height="26.448" viewBox="0 0 126.959 26.448">
  <defs>
    <clipPath id="clip-path">
      <rect id="Rectangle_2837" data-name="Rectangle 2837" width="126.959" height="26.448" fill="#fff"/>
    </clipPath>
  </defs>
  <g id="Group_12474" data-name="Group 12474" transform="translate(-4428 19608)">
    <g id="Group_12426" data-name="Group 12426" transform="translate(4428 -19608)" clip-path="url(#clip-path)">
      <path id="Path_1332" data-name="Path 1332" d="M15.771,18.136a.219.219,0,0,0-.284.138L13.48,24l-2-5.727a.225.225,0,0,0-.289-.138l-5.729,2L8.689,15a.225.225,0,0,0-.069-.312L3.48,11.46l6.031-.678a.227.227,0,0,0,.2-.25L9.029,4.5l4.292,4.292a.225.225,0,0,0,.319,0L17.931,4.5l-.68,6.031a.226.226,0,0,0,.2.25l6.031.678-5.14,3.229a.225.225,0,0,0-.069.312L21.5,20.139Zm10.693-3.771-1.309-2.09A3.521,3.521,0,0,1,24.634,10l.275-2.449a3.229,3.229,0,0,0-2.85-3.573L19.61,3.7a3.508,3.508,0,0,1-2.1-1.011L15.766.946a3.235,3.235,0,0,0-4.572,0L9.451,2.69A3.508,3.508,0,0,1,7.35,3.7L4.9,3.979a3.229,3.229,0,0,0-2.85,3.573L2.326,10a3.546,3.546,0,0,1-.516,2.273L.5,14.364A3.23,3.23,0,0,0,1.513,18.82L3.6,20.131a3.549,3.549,0,0,1,1.455,1.823l.814,2.329a3.231,3.231,0,0,0,4.116,1.983l2.328-.816a3.557,3.557,0,0,1,2.334,0l2.328.816a3.231,3.231,0,0,0,4.116-1.983l.814-2.329a3.549,3.549,0,0,1,1.455-1.823l2.088-1.311a3.23,3.23,0,0,0,1.016-4.455" transform="translate(0 0)" fill="#b1ff13"/>
      <path id="Path_1333" data-name="Path 1333" d="M118.282,8.908h4.828V9.44l-6.248,7.7,2.7,4.189c.923,1.349,1.491,1.988,2.8,1.988a3.929,3.929,0,0,0,2.13-.639l1.562,3.018a6.044,6.044,0,0,1-4.3,1.562c-2.733,0-4.259-1.491-5.5-3.266l-3.622-5.822v8.7h-4.366V1.205h4.366V16.328Z" transform="translate(-73.111 -0.814)" fill="#fff"/>
      <path id="Path_1334" data-name="Path 1334" d="M167.173,8.1h4.366V26.059h-4.366ZM169.374,0a2.806,2.806,0,0,1,2.911,2.769,2.778,2.778,0,0,1-2.911,2.734,2.717,2.717,0,0,1-2.84-2.734A2.745,2.745,0,0,1,169.374,0" transform="translate(-112.453 -0.002)" fill="#fff"/>
      <path id="Path_1335" data-name="Path 1335" d="M191.731,36.362a3.756,3.756,0,0,0,3.834,2.591c1.279,0,2.7-.461,2.7-1.881,0-.923-.852-1.456-1.952-1.917l-2.627-.994c-3.585-1.349-4.508-3.373-4.508-5.005,0-3.337,2.84-5.431,6.567-5.431,2.273,0,5.112.781,6.283,4.011l-3.514,1.278a2.706,2.706,0,0,0-2.734-1.846,2.106,2.106,0,0,0-2.343,1.881c0,.994.888,1.491,1.882,1.846l2.663.959c3.834,1.279,4.579,3.585,4.579,5.147,0,3.55-3.3,5.467-7.029,5.467-2.911,0-6.213-1.207-7.242-4.65Z" transform="translate(-127.143 -16.021)" fill="#fff"/>
      <path id="Path_1336" data-name="Path 1336" d="M250.977,32.173c0-3.124-1.242-4.757-3.337-4.757-1.988,0-3.94,1.526-4.047,5.467v9.194h-4.367V24.115h4.367v3.018a5.6,5.6,0,0,1,5.289-3.408,5.824,5.824,0,0,1,5.609,3.372,6.033,6.033,0,0,1,5.893-3.372c4.65,0,6.674,3.23,6.674,8.413v9.94h-4.367v-9.9c0-3.124-1.242-4.757-3.336-4.757-1.988,0-3.941,1.526-4.047,5.467v9.194h-4.331Z" transform="translate(-161.539 -16.021)" fill="#fff"/>
      <path id="Path_1337" data-name="Path 1337" d="M341.178,38.81a5.181,5.181,0,0,0,5.36-5.574c0-3.478-2.236-5.857-5.467-5.857-3.3,0-5.183,2.591-5.183,5.68,0,3.195,2.024,5.751,5.29,5.751m9.62-14.7V42.076h-4.366v-2.7a7.136,7.136,0,0,1-6.142,3.089c-5.325,0-8.8-4.189-8.8-9.443,0-5.076,3.337-9.3,8.839-9.3a7.268,7.268,0,0,1,6.106,3.053V24.114Z" transform="translate(-223.839 -16.019)" fill="#fff"/>
    </g>
  </g>
</svg>
