<svg xmlns="http://www.w3.org/2000/svg" xmlns:xlink="http://www.w3.org/1999/xlink" width="1600" height="628" viewBox="0 0 1600 628">
  <defs>
    <clipPath id="clip-_1600x628_Kisma">
      <rect width="1600" height="628"/>
    </clipPath>
  </defs>
  <g id="_1600x628_Kisma" data-name="1600x628 Kisma" clip-path="url(#clip-_1600x628_Kisma)">
    <g id="Logo_Kisma_Sport" transform="translate(13.143 59)">
      <path id="Path_2060" data-name="Path 2060" d="M52.754,96.294A96.294,96.294,0,0,1,149.048,0H649.775a96.293,96.293,0,0,1,0,192.587H149.048A96.294,96.294,0,0,1,52.754,96.294Z" transform="translate(825.921)" fill="#b3ff12"/>
      <path id="Path_2061" data-name="Path 2061" d="M57.308,90.1,74.85,79.3Q86.6,97.2,103.969,97.2q7.543,0,11.93-3.209a10.744,10.744,0,0,0,4.384-8.952,9.918,9.918,0,0,0-3.158-7.432q-2.981-3.209-10.174-6.756L95.023,64.77Q72.393,53.116,72.394,35.213A29.356,29.356,0,0,1,83.621,11.567q11.4-9.289,28.594-9.289,25.611,0,38.591,22.126L133.09,35.551q-9.121-12.667-22.1-12.667-6.843,0-10.876,2.871a9.514,9.514,0,0,0-3.86,8.107,9.889,9.889,0,0,0,2.632,6.925q2.631,2.871,9.122,6.418l12.63,6.249q23.33,11.654,23.331,29.388,0,14.863-11.754,25-11.752,9.965-29.119,9.965Q72.4,117.8,57.308,90.1Z" transform="translate(898.4 36.252)" fill="#001548"/>
      <path id="Path_2062" data-name="Path 2062" d="M63.319,113.87,83.668,2.4H122.61q18.6,0,29.471,9.12t10.876,24.659a33.786,33.786,0,0,1-13.332,27.7Q136.47,74.517,115.242,74.517H94.016L87,113.87ZM97.7,54.587h21.226q9.121,0,14.384-4.56,5.437-4.56,5.438-12.5,0-7.263-4.386-11.147T122.084,22.5h-18.42Z" transform="translate(994.063 38.159)" fill="#001548"/>
      <path id="Path_2063" data-name="Path 2063" d="M69.768,63.938A54.058,54.058,0,0,1,78.539,33.2a64.715,64.715,0,0,1,24.383-22.8A64.285,64.285,0,0,1,135.551,2.29q24.208-.338,40.521,15.37A49.983,49.983,0,0,1,192.21,56.168a54.839,54.839,0,0,1-8.77,30.908,66.146,66.146,0,0,1-24.559,22.8,64.34,64.34,0,0,1-32.453,7.938q-24.033.338-40.523-15.37A49.988,49.988,0,0,1,69.768,63.938Zm98.06-6.925q0-14.863-9.472-24.152Q148.881,23.4,133.8,23.4a38.584,38.584,0,0,0-28.243,11.485q-11.4,11.316-11.4,28.037,0,15.032,9.472,24.49Q113.1,96.7,128.007,96.7a39.377,39.377,0,0,0,39.821-39.691Z" transform="translate(1096.484 36.24)" fill="#001548"/>
      <path id="Path_2064" data-name="Path 2064" d="M149.521,71.139l25.787,42.731H149.521L125.136,74.517H108.3L101.28,113.87H77.6L97.948,2.4H136.89q18.418,0,29.295,9.12,11.052,8.952,11.052,24.152a34.224,34.224,0,0,1-7.368,21.619Q162.5,66.579,149.521,71.139ZM117.944,22.5,111.98,54.418h21.226q9.3,0,14.56-4.56t5.262-12.33q0-7.263-4.386-11.147T136.365,22.5Z" transform="translate(1221.327 38.159)" fill="#001548"/>
      <path id="Path_2065" data-name="Path 2065" d="M104.836,113.87,121.5,23H84.312L88.172,2.4h97.884L182.2,23H145.183L128.518,113.87Z" transform="translate(1328.155 38.159)" fill="#001548"/>
      <path id="Path_2066" data-name="Path 2066" d="M196.392,229.353a3.018,3.018,0,0,0-2.146.183,2.882,2.882,0,0,0-1.439,1.558l-24.438,68.821-24.44-68.821a2.67,2.67,0,0,0-.526-.924,2.745,2.745,0,0,0-.852-.655,2.812,2.812,0,0,0-1.046-.288,2.877,2.877,0,0,0-1.079.125L68.491,253.48l40-61.78a2.628,2.628,0,0,0-.1-3,2.745,2.745,0,0,0-.8-.717L43.97,149.141l74.7-7.909a2.877,2.877,0,0,0,1.844-1.027,2.711,2.711,0,0,0,.6-1.979l-8.146-72.46,53.115,51.575a2.828,2.828,0,0,0,3.911,0l53.116-51.575-8.146,72.46a2.618,2.618,0,0,0,.079,1.056,2.7,2.7,0,0,0,.494.944,2.78,2.78,0,0,0,.831.685,2.837,2.837,0,0,0,1.039.321l74.7,7.909-63.625,38.841a2.757,2.757,0,0,0-.795.717,2.623,2.623,0,0,0-.1,3l40,61.78Zm132.461-45.327L312.561,158.95a41.571,41.571,0,0,1-6.436-27.29l3.422-29.506A37.673,37.673,0,0,0,308.26,87.04a38.373,38.373,0,0,0-7.16-13.479,39.665,39.665,0,0,0-11.938-9.778A40.792,40.792,0,0,0,274.273,59.2l-30.306-3.322A44.542,44.542,0,0,1,217.9,43.7L196.392,22.734A40.1,40.1,0,0,0,183.406,14.3a41.1,41.1,0,0,0-30.648,0,40.071,40.071,0,0,0-12.986,8.437L117.94,43.7A44.535,44.535,0,0,1,91.871,55.878L61.566,59.2a40.791,40.791,0,0,0-14.889,4.582,39.666,39.666,0,0,0-11.939,9.778A38.382,38.382,0,0,0,27.578,87.04a37.672,37.672,0,0,0-1.286,15.113l3.422,29.506a42.034,42.034,0,0,1-6.436,27.29L6.984,184.026A37.97,37.97,0,0,0,1.866,213.38,38.973,38.973,0,0,0,19.611,237.66l25.824,15.82a42.891,42.891,0,0,1,18,21.911l10.1,28a39.261,39.261,0,0,0,20.439,22.118,41.092,41.092,0,0,0,30.558,1.614l28.839-9.729a43.961,43.961,0,0,1,28.838,0l28.84,9.729a41.092,41.092,0,0,0,30.558-1.614,39.259,39.259,0,0,0,20.438-22.118l10.1-28a42.893,42.893,0,0,1,18-21.911l25.826-15.82a38.973,38.973,0,0,0,17.745-24.279,37.972,37.972,0,0,0-5.118-29.354" transform="translate(0 180.362)" fill="#b3ff12"/>
      <path id="Path_2067" data-name="Path 2067" d="M150.584,104.241h59.8v6.407l-77.394,92.63,33.4,50.389c11.406,16.216,18.493,23.731,34.7,23.731a49.934,49.934,0,0,0,26.4-7.911l19.307,36.23a75.87,75.87,0,0,1-53.2,18.826c-33.808,0-52.708-17.957-68.1-39.552L80.687,215.065V320.273H26.6V11.609H80.687V193.549Z" transform="translate(409.616 184.748)" fill="#fff"/>
      <path id="Path_2068" data-name="Path 2068" d="M48.351,108.65h54.092V324.684H48.351Zm27.29-97.3a35.707,35.707,0,0,1,13.574,2.179,34.949,34.949,0,0,1,11.642,7.119A33.776,33.776,0,0,1,108.747,31.6a32.945,32.945,0,0,1,2.9,13.06,32.571,32.571,0,0,1-2.931,12.979,33.4,33.4,0,0,1-7.913,10.841,34.543,34.543,0,0,1-11.639,6.986,35.335,35.335,0,0,1-13.525,2.023,34.559,34.559,0,0,1-13.39-2.057,33.8,33.8,0,0,1-11.468-7.02A32.673,32.673,0,0,1,43.1,57.564a31.837,31.837,0,0,1-2.652-12.908,32.141,32.141,0,0,1,2.6-13,32.952,32.952,0,0,1,7.657-10.959,34.084,34.084,0,0,1,11.482-7.152A34.893,34.893,0,0,1,75.641,11.353Z" transform="translate(630.056 180.339)" fill="#fff"/>
      <path id="Path_2069" data-name="Path 2069" d="M88.457,168.768c5.7,21.357,27.29,31.165,47.493,31.165,15.805,0,33.4-5.536,33.4-22.624,0-11.154-10.59-17.481-24.44-23.1l-32.586-11.945c-44.4-16.216-55.8-40.5-55.8-60.118,0-40.186,35.112-65.34,81.465-65.34,28.106,0,63.3,9.413,77.8,48.253l-43.5,15.347A32.71,32.71,0,0,0,159.229,63.7a34.317,34.317,0,0,0-20.834-5.523c-14.012,0-29,7.909-29,22.624,0,11.943,11,17.957,23.3,22.228l32.586,11.549c47.412,15.345,57.025,43.111,57.025,61.859,0,42.717-40.733,65.736-87.086,65.736-36.008,0-76.9-14.555-89.613-55.927Z" transform="translate(712.151 267.513)" fill="#fff"/>
      <path id="Path_2070" data-name="Path 2070" d="M203.225,118.48c0-37.574-15.4-57.192-41.3-57.192-24.44,0-48.879,18.351-50.1,65.734V237.768H57.727V21.577h54.093V57.886A67.7,67.7,0,0,1,137.927,27.68a70.7,70.7,0,0,1,39.066-10.77,73.7,73.7,0,0,1,41.138,9.914A70.664,70.664,0,0,1,246.4,57.491c17.6-34.648,48.88-40.58,73.319-40.58,57.6,0,82.607,38.84,82.607,101.174V237.611H348.315V118.48c0-37.574-15.4-57.192-41.384-57.192-24.44,0-48.88,18.351-50.1,65.734V237.768h-53.6Z" transform="translate(905.075 267.412)" fill="#fff"/>
      <path id="Path_2071" data-name="Path 2071" d="M199.659,198.224c36.9,0,66.394-24.285,66.394-67s-27.7-70.4-67.7-70.4-64.193,31.167-64.193,68.266c0,38.444,25.091,69.136,65.171,69.136ZM319.006,21.507V237.539H264.994V205.027a87.562,87.562,0,0,1-33.231,28.145,90.492,90.492,0,0,1-43.1,9.034c-65.905,0-109-50.389-109-113.513,0-61.067,41.3-111.852,109.489-111.852a91.844,91.844,0,0,1,42.537,9.153A88.949,88.949,0,0,1,264.75,53.544V21.507Z" transform="translate(1254.132 267.482)" fill="#fff"/>
    </g>
  </g>
</svg>
