<?xml version="1.0" standalone="no"?>
<!DOCTYPE svg PUBLIC "-//W3C//DTD SVG 1.1//EN" "http://www.w3.org/Graphics/SVG/1.1/DTD/svg11.dtd" >
<svg xmlns="http://www.w3.org/2000/svg" xmlns:xlink="http://www.w3.org/1999/xlink" version="1.1">
<metadata></metadata>
<defs>
<font id="cera_probold_italic" horiz-adv-x="1288" >
<font-face units-per-em="2048" ascent="1655" descent="-393" />
<missing-glyph horiz-adv-x="573" />
<glyph unicode="&#xfb01;" horiz-adv-x="1286" d="M-231 -356l38 223q71 -12 117 -12q79 0 121.5 36.5t54.5 112.5l138 778h-146l43 232h144l34 200q29 170 132 258.5t270 88.5q98 0 196 -37l-37 -224q-83 13 -118 13q-80 0 -122 -36t-54 -114l-27 -149h223l-41 -232h-223l-145 -831q-31 -167 -133.5 -255.5t-266.5 -88.5 q-91 0 -198 37zM784 0l179 1014h276l-178 -1014h-277zM991 1382q0 73 51 122.5t125 49.5t126.5 -49.5t52.5 -122.5q0 -71 -52.5 -120.5t-126.5 -49.5t-125 49t-51 121z" />
<glyph unicode="&#xfb02;" horiz-adv-x="1286" d="M-231 -356l38 223q71 -12 117 -12q79 0 121.5 36.5t54.5 112.5l138 778h-146l43 232h144l34 200q29 170 132 258.5t270 88.5q98 0 196 -37l-37 -224q-83 13 -118 13q-80 0 -122 -36t-54 -114l-27 -149h223l-41 -232h-223l-145 -831q-31 -167 -133.5 -255.5t-266.5 -88.5 q-91 0 -198 37zM784 0l271 1536h276l-270 -1536h-277z" />
<glyph horiz-adv-x="0" />
<glyph horiz-adv-x="682" />
<glyph unicode=" "  horiz-adv-x="573" />
<glyph unicode="&#x09;" horiz-adv-x="573" />
<glyph unicode="&#xa0;" horiz-adv-x="573" />
<glyph unicode="!" horiz-adv-x="710" d="M106 166q0 80 55.5 135t137.5 55q79 0 133.5 -55t54.5 -135q0 -82 -53.5 -136.5t-134.5 -54.5q-82 0 -137.5 54.5t-55.5 136.5zM242 496l96 856h336l-207 -856h-225z" />
<glyph unicode="&#x22;" horiz-adv-x="1103" d="M223 782l109 570h317l-209 -570h-217zM709 782l108 570h318l-209 -570h-217z" />
<glyph unicode="#" horiz-adv-x="1241" d="M20 311l41 232h191l47 266h-193l41 231h193l55 312h226l-56 -312h303l56 312h225l-55 -312h192l-41 -231h-192l-45 -266h194l-41 -232h-194l-56 -311h-225l55 311h-305l-55 -311h-225l55 311h-191zM475 530h305l49 291h-303z" />
<glyph unicode="$" horiz-adv-x="1101" d="M59 346l203 129q119 -186 293 -186q74 0 115 30t41 84q0 41 -29.5 73.5t-101.5 70.5l-123 63q-244 123 -244 326q0 144 102 246q103 103 267 118l43 234h241l-47 -262q143 -59 234 -215l-205 -137q-47 72 -99.5 103.5t-121.5 31.5q-63 0 -101.5 -29t-38.5 -76 q0 -37 27 -67t90 -62l133 -67q248 -125 248 -324q0 -151 -108 -259.5t-275 -127.5l-43 -242h-242l48 269q-199 73 -306 276z" />
<glyph unicode="%" horiz-adv-x="1701" d="M186 1030q0 139 105.5 241.5t249.5 102.5q137 0 233 -94t96 -229q0 -141 -104.5 -243.5t-249.5 -102.5q-137 0 -233.5 94.5t-96.5 230.5zM229 0l1088 1352h223l-1087 -1352h-224zM391 1034q0 -63 37.5 -102t97.5 -39q61 0 100.5 42.5t39.5 108.5q0 61 -37 100.5t-94 39.5 q-63 0 -103.5 -42t-40.5 -108zM899 303q0 143 103.5 243.5t250.5 100.5q138 0 234 -93t96 -230q0 -140 -105 -243.5t-251 -103.5q-137 0 -232.5 96t-95.5 230zM1104 309q0 -63 37.5 -102t97.5 -39q61 0 100 42.5t39 108.5q0 61 -37 100.5t-94 39.5q-63 0 -103 -42t-40 -108z " />
<glyph unicode="&#x26;" horiz-adv-x="1382" d="M72 334q0 119 83 224.5t263 215.5q-84 141 -84 254q0 149 108.5 248.5t270.5 99.5q148 0 239.5 -78.5t91.5 -207.5q0 -103 -67.5 -192t-216.5 -183l155 -242q86 86 236 262l182 -166l-82 -92q-135 -156 -198 -219l166 -258h-301l-60 92q-176 -117 -354 -117 q-188 0 -310 101.5t-122 257.5zM352 369q0 -66 47.5 -109t120.5 -43q93 0 205 80l-186 289q-109 -68 -148 -113.5t-39 -103.5zM592 1036q0 -61 53 -141l2 -2q78 50 111 87.5t33 78.5q0 38 -26 62t-67 24q-50 0 -78 -29t-28 -80z" />
<glyph unicode="'" horiz-adv-x="618" d="M223 782l109 570h317l-209 -570h-217z" />
<glyph unicode="(" horiz-adv-x="753" d="M150 414q-2 252 78.5 484.5t224 395t319.5 217.5l82 -170q-213 -104 -339 -355.5t-126 -571.5q0 -186 49 -313.5t158 -221.5l-133 -151q-152 94 -232.5 270.5t-80.5 415.5z" />
<glyph unicode=")" horiz-adv-x="751" d="M-57 -100q213 104 339 355.5t126 571.5q0 186 -49 313.5t-158 221.5l135 149q152 -92 231.5 -268t79.5 -416q2 -252 -78.5 -484t-223.5 -395t-320 -220z" />
<glyph unicode="*" horiz-adv-x="956" d="M172 1055l207 104l-160 168l103 119l194 -129l68 225l153 -29l-14 -231l225 53l56 -147l-209 -105l159 -168l-100 -120l-195 127l-65 -222l-154 27l15 231l-228 -53z" />
<glyph unicode="+" horiz-adv-x="1146" d="M98 539l41 233h353l65 361h262l-63 -361h348l-41 -233h-348l-66 -365h-262l66 365h-355z" />
<glyph unicode="," horiz-adv-x="573" d="M-16 -365l120 617h316l-217 -617h-219z" />
<glyph unicode="-" horiz-adv-x="696" d="M102 541l41 231h512l-41 -231h-512z" />
<glyph unicode="." horiz-adv-x="573" d="M39 166q0 80 55.5 135t136.5 55q79 0 134 -55t55 -135q0 -81 -54.5 -136t-134.5 -55q-82 0 -137 54.5t-55 136.5z" />
<glyph unicode="/" horiz-adv-x="1368" d="M-125 -248l1382 1845h297l-1384 -1845h-295z" />
<glyph unicode="0" horiz-adv-x="1300" d="M133 502q0 182 66 389q64 200 211 344q147 141 376 141q218 0 333.5 -137.5t115.5 -380.5q0 -186 -68 -393q-64 -200 -213 -346q-147 -144 -374 -144q-216 0 -331.5 140.5t-115.5 386.5zM414 504q0 -138 52.5 -206.5t147.5 -68.5q71 -3 130 39.5t97 110.5t64.5 154 t37.5 166.5t11 152.5q0 137 -52.5 203.5t-147.5 66.5q-73 2 -132.5 -39t-97 -106.5t-63.5 -150t-36.5 -165.5t-10.5 -157z" />
<glyph unicode="1" horiz-adv-x="823" d="M166 1233l532 119h90l-237 -1352h-277l183 1044l-264 -59z" />
<glyph unicode="2" horiz-adv-x="1196" d="M6 -2l8 61l580 506q130 112 189 200.5t59 174.5q0 84 -47 132t-129 48q-94 0 -151.5 -70.5t-57.5 -187.5v-45h-279q-2 10 -2 55q0 216 143.5 360t356.5 144q199 0 323.5 -115t124.5 -300q0 -147 -88 -275q-91 -130 -291 -297l-188 -156h485l-38 -233z" />
<glyph unicode="3" horiz-adv-x="1124" d="M2 324l215 116q49 -109 117 -160t162 -51q106 0 172.5 61t66.5 159q0 92 -65.5 141t-188.5 49h-149l12 74l332 393h-434l43 246h868l-14 -74l-373 -434q115 -47 184.5 -150.5t69.5 -228.5q0 -207 -151 -348.5t-375 -141.5q-183 0 -312 91.5t-180 257.5z" />
<glyph unicode="4" horiz-adv-x="1181" d="M-16 221l14 74l580 1059h294l-497 -901h321l66 381h274l-65 -381h174l-41 -232h-174l-39 -221h-275l39 221h-671z" />
<glyph unicode="5" horiz-adv-x="1155" d="M14 324l215 116q94 -211 287 -211q112 0 182 62t70 160q0 90 -65.5 139t-184.5 49h-301l125 713h799l-43 -246h-533l-41 -244q55 12 107 12q175 0 298.5 -110.5t123.5 -290.5q0 -99 -38 -189t-105.5 -159t-170 -109.5t-223.5 -40.5q-188 0 -319 93.5t-183 255.5z" />
<glyph unicode="6" horiz-adv-x="1153" d="M70 440q0 109 47 205q56 107 186 254l391 453h344l-385 -441q174 -3 295 -129.5t121 -306.5q2 -98 -40.5 -191t-113.5 -161t-169 -108t-201 -38q-201 0 -338 132.5t-137 330.5zM342 446q0 -97 60.5 -159t154.5 -62q103 0 171.5 70t68.5 174q0 97 -59 157t-156 60 q-103 0 -171.5 -68.5t-68.5 -171.5z" />
<glyph unicode="7" horiz-adv-x="1075" d="M20 0l738 1108h-572l43 244h949l-13 -74l-833 -1278h-312z" />
<glyph unicode="8" horiz-adv-x="1204" d="M70 348q0 135 90 233.5t250 141.5q-148 112 -148 266q0 167 129 276t324 109q202 0 324 -94.5t122 -249.5q0 -236 -274 -356q205 -111 205 -291q0 -112 -65.5 -205t-180 -147t-252.5 -54q-229 0 -376.5 105t-147.5 266zM348 373q0 -78 62 -123t170 -45t172.5 48t64.5 128 q0 57 -42 102.5t-148 102.5q-148 -38 -213.5 -88.5t-65.5 -124.5zM520 993q0 -49 31 -86.5t117 -93.5q124 41 177.5 86t53.5 107q0 66 -50.5 105.5t-135.5 39.5q-86 0 -139.5 -44.5t-53.5 -113.5z" />
<glyph unicode="9" horiz-adv-x="1153" d="M150 877q-3 131 69 247.5t194.5 184.5t260.5 65q201 0 337 -132.5t136 -330.5q0 -111 -49 -209q-49 -94 -183 -249l-391 -453h-344l383 440q-171 3 -292 130.5t-121 306.5zM422 883q0 -96 59.5 -156.5t153.5 -60.5q103 0 172.5 68.5t69.5 170.5q0 97 -60.5 159t-154.5 62 q-103 0 -171.5 -69.5t-68.5 -173.5z" />
<glyph unicode=":" horiz-adv-x="573" d="M39 166q0 80 55.5 135t136.5 55q79 0 134 -55t55 -135q0 -81 -54.5 -136t-134.5 -55q-82 0 -137 54.5t-55 136.5zM158 842q0 80 55.5 135t136.5 55q79 0 134 -55t55 -135q0 -81 -54.5 -136t-134.5 -55q-82 0 -137 54.5t-55 136.5z" />
<glyph unicode=";" horiz-adv-x="573" d="M-16 -365l120 617h316l-217 -617h-219zM158 842q0 80 55.5 135t136.5 55q79 0 134 -55t55 -135q0 -81 -54.5 -136t-134.5 -55q-82 0 -137 54.5t-55 136.5z" />
<glyph unicode="&#x3c;" horiz-adv-x="1146" d="M98 621l13 73l1024 422l-43 -252l-549 -219l473 -217l-41 -229z" />
<glyph unicode="=" horiz-adv-x="1146" d="M80 319l41 234h926l-41 -234h-926zM158 760l41 233h925l-41 -233h-925z" />
<glyph unicode="&#x3e;" horiz-adv-x="1146" d="M70 199l43 254l553 217l-476 221l39 223l879 -420l-14 -76z" />
<glyph unicode="?" horiz-adv-x="925" d="M158 1106q144 270 422 270q166 0 268 -86t102 -231q0 -101 -55 -182t-172 -166q-83 -65 -123 -105q-38 -41 -55 -108h-228q2 102 41 175t140 146q98 70 131 109.5t33 89.5q0 49 -30.5 76.5t-82.5 27.5q-55 0 -98 -32t-86 -105zM209 166q0 80 54.5 135t135.5 55t136 -55 t55 -135q0 -82 -54.5 -136.5t-136.5 -54.5q-80 0 -135 55t-55 136z" />
<glyph unicode="@" horiz-adv-x="1955" d="M82 422q-4 190 74 365t210.5 302t316 201.5t382.5 71.5q235 2 424.5 -92t295.5 -262t103 -377q0 -268 -169.5 -423t-463.5 -155h-139l17 103q-96 -113 -261 -113q-158 0 -262 115t-104 288q0 134 59 245t161.5 175t225.5 64q198 0 287 -137l21 116h227l-115 -647 q136 1 215.5 99.5t79.5 263.5q0 242 -161.5 383t-442.5 141q-158 2 -299.5 -53t-242.5 -150.5t-159.5 -229t-56.5 -282.5q0 -170 85 -307t236.5 -215t340.5 -78q99 0 207 21l20 -191q-109 -41 -262 -41q-176 -2 -335 60t-272.5 169.5t-179.5 256.5t-63 313zM768 469 q0 -91 51.5 -146t136.5 -55q94 0 159 70t65 172q0 86 -53 139t-138 53q-94 0 -157.5 -67.5t-63.5 -165.5z" />
<glyph unicode="A" horiz-adv-x="1353" d="M-55 0l846 1376h92l360 -1376h-287l-45 176h-546l-107 -176h-313zM502 403h350l-96 447z" />
<glyph unicode="B" horiz-adv-x="1269" d="M70 0l237 1352h438q180 0 290 -99.5t110 -261.5q0 -183 -141 -282q85 -47 130.5 -125.5t45.5 -177.5q0 -176 -136.5 -291t-349.5 -115h-624zM377 238h315q100 0 156.5 46t56.5 130q0 75 -47 118t-131 43h-291zM477 805h201q88 0 139 45t51 123q0 68 -42.5 105.5 t-120.5 37.5h-173z" />
<glyph unicode="C" horiz-adv-x="1474" d="M115 629v18q1 139 59 269q62 140 167 241.5t249 161.5q137 57 282 57h15q201 0 354.5 -95.5t231.5 -268.5l-226 -135q-120 243 -377 243q-201 0 -336 -137.5t-135 -341.5q0 -183 112.5 -296.5t291.5 -113.5q233 0 397 209l195 -155q-109 -148 -268.5 -229t-344.5 -81h-11 q-133 0 -253 48q-124 50 -214 137q-89 88 -140 210q-49 118 -49 249v10z" />
<glyph unicode="D" horiz-adv-x="1421" d="M70 0l237 1352h381q299 0 490.5 -176t191.5 -451v-10q0 -147 -58 -279q-60 -136 -166.5 -232t-256.5 -151q-145 -53 -308 -53h-12h-499zM389 248l199 2q222 0 360.5 129t138.5 332q0 180 -113.5 285.5t-305.5 105.5h-129z" />
<glyph unicode="E" horiz-adv-x="1175" d="M70 0l237 1352h910l-43 -250h-635l-50 -275h467l-41 -235h-466l-60 -342h658l-43 -250h-934z" />
<glyph unicode="F" horiz-adv-x="1095" d="M70 0l237 1352h889l-45 -250h-612l-62 -338h504l-43 -250h-502l-90 -514h-276z" />
<glyph unicode="G" horiz-adv-x="1536" d="M115 629v18q0 139 58 271q62 139 167 240t250 161q138 57 284 57h15q185 0 330 -83t233 -238l-209 -154q-133 219 -371 219q-203 0 -338 -137t-135 -344q0 -188 113 -301t295 -113q205 0 346 144l25 133h-373l43 239h649l-78 -440q-103 -152 -272 -240q-170 -86 -363 -86 h-13q-180 0 -330 83q-155 86 -242 237q-84 146 -84 322v12z" />
<glyph unicode="H" horiz-adv-x="1460" d="M70 0l237 1352h277l-90 -518h598l90 518h276l-237 -1352h-277l100 584h-598l-100 -584h-276z" />
<glyph unicode="I" horiz-adv-x="585" d="M70 0l237 1352h277l-238 -1352h-276z" />
<glyph unicode="J" horiz-adv-x="800" d="M-49 20l43 232q108 -21 168 -21q84 0 127.5 36.5t60.5 121.5l168 963h277l-179 -1014q-31 -177 -135 -270t-274 -93q-137 0 -256 45z" />
<glyph unicode="K" horiz-adv-x="1372" d="M70 0l237 1352h277l-111 -629l606 629h353l-639 -664l469 -688h-310l-481 707l-125 -707h-276z" />
<glyph unicode="L" horiz-adv-x="1073" d="M70 0l237 1352h277l-195 -1102h592l-43 -250h-868z" />
<glyph unicode="M" horiz-adv-x="1634" d="M70 0l241 1376h90l443 -731l700 731h90l-241 -1376h-277l123 696l-389 -401h-92l-281 453l-131 -748h-276z" />
<glyph unicode="N" horiz-adv-x="1460" d="M70 0l241 1376h90l637 -852l144 828h276l-241 -1377h-93l-635 859l-143 -834h-276z" />
<glyph unicode="O" horiz-adv-x="1593" d="M115 629v14q-1 143 59 275q62 140 168 241t248 161q136 57 279 56h14h11q132 0 252 -48q124 -50 212 -138t138 -210q48 -117 48 -247v-10v-14q0 -143 -60 -275q-62 -140 -167 -242q-105 -100 -247 -160q-136 -57 -280 -57h-14h-10q-132 1 -252 49q-124 50 -212 138 t-138 210q-49 118 -49 247v10zM399 641q0 -182 111 -296t285 -114q128 0 235 64t168.5 175t61.5 243q0 180 -111.5 293.5t-286.5 113.5q-194 0 -328.5 -138.5t-134.5 -340.5z" />
<glyph unicode="P" horiz-adv-x="1226" d="M70 0l237 1352h455q217 0 344 -110.5t127 -299.5q0 -207 -154 -336t-403 -129h-248l-82 -477h-276zM471 719h248q106 0 168.5 55.5t62.5 151.5q0 87 -50.5 134.5t-143.5 47.5h-215z" />
<glyph unicode="Q" horiz-adv-x="1593" d="M115 629v14q0 140 59 273q62 140 166.5 241.5t247.5 161.5q136 57 281 57h14h5q135 0 257 -49q124 -50 212 -136.5t139 -208.5q48 -117 48 -249v-10q0 -196 -97.5 -365t-264.5 -270q116 -161 282.5 -233t425.5 -72q33 0 58.5 0.5t39 1t15.5 0.5l-37 -213 q-84 -23 -203 -23q-263 0 -479 119q-215 116 -346 324q-97 -17 -162 -17h-5q-135 0 -257 49q-124 50 -212 137t-138 209q-49 117 -49 249v10zM399 641q0 -180 111.5 -295t284.5 -115q128 0 235 64t168.5 175t61.5 243q0 179 -111.5 293t-286.5 114q-127 0 -233.5 -63.5 t-168 -173.5t-61.5 -242z" />
<glyph unicode="R" horiz-adv-x="1310" d="M70 0l237 1352h455q215 0 343 -109.5t128 -294.5q0 -148 -86.5 -261t-237.5 -169l301 -518h-301l-284 477h-197l-82 -477h-276zM471 721h248q108 0 169.5 55.5t61.5 149.5q0 87 -50.5 134.5t-143.5 47.5h-215z" />
<glyph unicode="S" horiz-adv-x="1144" d="M27 311l204 131q138 -217 340 -217q88 0 139.5 40t51.5 108q0 53 -36 91.5t-120 80.5l-139 73q-264 141 -264 359q0 173 132.5 286t332.5 113q299 0 450 -268l-207 -135q-56 80 -117.5 116.5t-140.5 36.5q-80 0 -126 -35t-46 -98q0 -49 31 -84.5t106 -77.5l148 -75 q140 -72 206 -158.5t66 -198.5q0 -181 -137 -302.5t-340 -121.5q-174 0 -311 86t-223 250z" />
<glyph unicode="T" horiz-adv-x="1204" d="M137 1102l45 250h1143l-45 -250h-432l-195 -1102h-276l194 1102h-434z" />
<glyph unicode="U" horiz-adv-x="1433" d="M147 465q0 55 15 131l133 756h276l-135 -760q-12 -82 -12 -107q0 -111 77.5 -182.5t198.5 -71.5q122 0 210 76t108 203l147 842h277l-152 -860q-43 -243 -205 -379q-159 -138 -397 -138t-389.5 137.5t-151.5 352.5z" />
<glyph unicode="V" horiz-adv-x="1353" d="M176 1352h291l205 -807l487 807h316l-846 -1377h-90z" />
<glyph unicode="W" horiz-adv-x="2111" d="M188 1352h283l164 -799l520 823h92l207 -811l438 787h314l-783 -1377h-90l-219 848l-536 -848h-91z" />
<glyph unicode="X" horiz-adv-x="1251" d="M-61 0l567 717l-303 635h293l198 -434l320 434h336l-531 -688l322 -664h-293l-221 459l-353 -459h-335z" />
<glyph unicode="Y" horiz-adv-x="1277" d="M176 1352h279l221 -537l389 537h319l-610 -828l-92 -524h-276l94 537z" />
<glyph unicode="Z" horiz-adv-x="1204" d="M-45 0l12 74l854 1028h-583l43 250h1015l-12 -74l-856 -1028h676l-43 -250h-1106z" />
<glyph unicode="[" horiz-adv-x="735" d="M53 -266l309 1761h467l-38 -223h-232l-231 -1315h231l-39 -223h-467z" />
<glyph unicode="\" horiz-adv-x="1374" d="M201 1597h258l776 -1845h-258z" />
<glyph unicode="]" horiz-adv-x="735" d="M-51 -266l37 221h231l234 1317h-232l37 223h469l-309 -1761h-467z" />
<glyph unicode="^" horiz-adv-x="1097" d="M115 565l542 807h91l262 -807h-252l-119 387l-256 -387h-268z" />
<glyph unicode="_" horiz-adv-x="1024" d="M-76 -350l37 217h881l-39 -217h-879z" />
<glyph unicode="`" horiz-adv-x="1024" d="M496 1548l16 49h309l13 -428h-193z" />
<glyph unicode="a" d="M76 457v11q0 112 40 216q42 108 116 186q74 77 176 122q99 44 208 44h5q220 0 323 -141l21 119h274l-174 -1014h-258l18 104q-120 -129 -309 -129t-314.5 137.5t-125.5 344.5zM358 483q0 -117 67.5 -188.5t176.5 -71.5q120 0 199 88t82 221q0 115 -67.5 187t-176.5 72 q-118 0 -199.5 -89.5t-81.5 -218.5z" />
<glyph unicode="b" horiz-adv-x="1286" d="M53 0l269 1536h276l-109 -604q113 104 285 104q191 0 317 -137.5t126 -349.5v-12q-1 -148 -71 -277q-74 -134 -200 -211q-122 -74 -261 -74h-11q-221 0 -324 150l-22 -125h-275zM410 475q0 -110 68.5 -181t174.5 -71q116 0 197.5 87.5t81.5 213.5q0 121 -66.5 194 t-175.5 73q-118 0 -199 -91t-81 -225z" />
<glyph unicode="c" horiz-adv-x="1144" d="M78 475q0 117 44.5 221t121 178.5t182.5 118t225 43.5q152 0 268.5 -70.5t172.5 -195.5l-205 -135q-95 153 -246 153q-120 0 -202.5 -87.5t-82.5 -213.5q0 -117 70.5 -190.5t181.5 -73.5q145 0 248 133l178 -153q-75 -112 -187.5 -170t-254.5 -58q-226 0 -370 140 t-144 360z" />
<glyph unicode="d" d="M76 457v13q0 151 70 280q72 135 197 212q120 74 260 74h11q111 0 196 -37.5t134 -109.5l115 647h276l-270 -1536h-254l18 111q-114 -136 -313 -136q-189 0 -314.5 137.5t-125.5 344.5zM358 483q0 -117 66.5 -188.5t175.5 -71.5q118 0 199.5 90t81.5 219 q0 115 -66.5 185.5t-175.5 70.5q-119 0 -200 -88t-81 -217z" />
<glyph unicode="e" horiz-adv-x="1148" d="M76 475v10q0 107 43 207q45 105 121 181q77 77 182 121q100 43 207 42h10q199 0 325 -124.5t126 -321.5q0 -89 -35 -176h-705q19 -98 89.5 -150.5t185.5 -52.5q149 0 286 94l101 -186q-176 -144 -412 -144q-230 0 -377 140t-147 360zM356 606h469q-1 97 -57 153t-150 56 q-93 0 -163 -56t-99 -153z" />
<glyph unicode="f" horiz-adv-x="702" d="M-231 -356l38 223q71 -12 117 -12q79 0 121.5 36.5t54.5 112.5l138 778h-146l43 232h144l34 200q29 170 132 258.5t270 88.5q98 0 196 -37l-37 -224q-83 13 -118 13q-80 0 -122 -36t-54 -114l-27 -149h223l-41 -232h-223l-145 -831q-31 -167 -133.5 -255.5t-266.5 -88.5 q-91 0 -198 37z" />
<glyph unicode="g" horiz-adv-x="1292" d="M2 -164l166 182q84 -84 168.5 -122.5t181.5 -38.5q117 0 192.5 57t94.5 160l8 51q-113 -94 -285 -94q-197 0 -324.5 124t-127.5 316q0 117 43 222t116 180t174 119t214 44q220 0 323 -143l21 121h274l-162 -948q-37 -214 -186.5 -336.5t-374.5 -122.5q-153 0 -285 59 t-231 170zM360 504q0 -109 66.5 -176.5t175.5 -67.5q120 0 201.5 85t81.5 208q0 110 -68 180t-174 70q-120 0 -201.5 -87t-81.5 -212z" />
<glyph unicode="h" horiz-adv-x="1198" d="M53 0l269 1536h276l-104 -588q113 88 258 88q156 0 252 -93t96 -245q0 -31 -13 -114l-102 -584h-276l100 575q8 36 8 64q0 73 -46 116.5t-124 43.5q-81 0 -139.5 -49t-71.5 -134l-108 -616h-275z" />
<glyph unicode="i" horiz-adv-x="550" d="M51 0l178 1014h277l-178 -1014h-277zM258 1382q0 73 51 122.5t125 49.5t126 -49.5t52 -122.5q0 -72 -52 -121t-126 -49t-125 49t-51 121z" />
<glyph unicode="j" horiz-adv-x="552" d="M-264 -356l39 227q56 -12 104 -12q78 0 119 34t55 109l178 1012h275l-187 -1061q-29 -169 -132 -257.5t-263 -88.5q-101 0 -188 37zM256 1382q0 73 51 122.5t125 49.5t126 -49.5t52 -122.5q0 -72 -52 -121t-126 -49t-125 49t-51 121z" />
<glyph unicode="k" horiz-adv-x="1142" d="M51 0l271 1536h276l-170 -963l432 441h334l-461 -471l311 -543h-301l-317 559l-98 -559h-277z" />
<glyph unicode="l" horiz-adv-x="550" d="M51 0l271 1536h276l-270 -1536h-277z" />
<glyph unicode="m" horiz-adv-x="1826" d="M53 0l176 1014h254l-16 -88q119 110 285 110q94 0 168.5 -37t117.5 -104q135 141 342 141q160 0 254.5 -92.5t94.5 -245.5q0 -38 -13 -114l-102 -584h-275l101 571q8 44 8 68q0 75 -44.5 117.5t-119.5 42.5q-76 0 -134 -49.5t-71 -133.5l-108 -616h-275l101 571 q8 56 8 68q0 75 -44.5 117.5t-119.5 42.5q-76 0 -134 -49.5t-71 -133.5l-108 -616h-275z" />
<glyph unicode="n" horiz-adv-x="1198" d="M53 0l176 1014h254l-16 -90q118 112 287 112q156 0 250 -94q96 -96 96 -246q0 -23 -13 -112l-102 -584h-276l100 563q8 41 8 74q0 74 -47 118t-123 44q-80 0 -139 -49.5t-72 -133.5l-108 -616h-275z" />
<glyph unicode="o" horiz-adv-x="1243" d="M78 483v11q0 142 76 266q78 129 212 204q128 72 273 72h12q220 0 370 -146t150 -362v-9q0 -106 -44 -205q-46 -103 -124.5 -178t-186.5 -119q-103 -42 -212 -42h-10q-221 0 -368.5 145.5t-147.5 362.5zM360 485q0 -117 67.5 -188.5t176.5 -71.5q122 0 203.5 86t81.5 213 q0 116 -70 190t-180 74q-117 0 -198 -88t-81 -215z" />
<glyph unicode="p" horiz-adv-x="1286" d="M-14 -369l243 1383h254l-18 -107q56 62 136 95.5t173 33.5q189 0 316 -137t127 -344q0 -161 -71.5 -294t-196.5 -209.5t-275 -76.5q-108 0 -192 38t-134 108l-86 -490h-276zM410 477q0 -113 67.5 -183.5t175.5 -70.5q119 0 200 88t81 217q0 116 -67.5 188t-176.5 72 q-119 0 -199.5 -89.5t-80.5 -221.5z" />
<glyph unicode="q" d="M76 459q0 160 71.5 293t196 208.5t274.5 75.5q109 0 194 -38.5t132 -110.5l23 127h276l-244 -1385h-276l82 453q-116 -107 -287 -107q-190 0 -316 138.5t-126 345.5zM358 483q0 -117 66.5 -188.5t175.5 -71.5q118 0 199.5 92t81.5 226q0 110 -68 178.5t-174 68.5 q-119 0 -200 -88t-81 -217z" />
<glyph unicode="r" horiz-adv-x="794" d="M51 0l178 1014h254l-18 -103q109 115 266 115q58 0 119 -22l-43 -242q-85 10 -109 10q-116 0 -187 -62.5t-91 -183.5l-92 -526h-277z" />
<glyph unicode="s" horiz-adv-x="933" d="M10 203l172 153q72 -85 132 -121t132 -36q61 0 96.5 22.5t35.5 59.5q0 29 -20 49t-75 45l-96 41q-127 54 -187.5 129.5t-60.5 179.5q0 141 100.5 226t266.5 85q246 0 377 -174l-162 -155q-95 108 -215 108q-47 0 -75 -21.5t-28 -56.5q0 -62 89 -100l90 -39 q135 -58 197.5 -127.5t62.5 -165.5q0 -142 -113 -236t-283 -94q-141 0 -255.5 59.5t-180.5 168.5z" />
<glyph unicode="t" horiz-adv-x="849" d="M86 782l39 232h160l45 256h276l-47 -256h291l-39 -232h-293l-72 -393q-4 -28 -4 -47q0 -68 51.5 -97.5t159.5 -29.5q68 0 86 2l-41 -231q-79 -11 -123 -11q-192 0 -301.5 81.5t-109.5 234.5q0 30 10 98l70 393h-158z" />
<glyph unicode="u" horiz-adv-x="1187" d="M117 375q0 33 10 98l92 541h277l-101 -578q-4 -20 -4 -47q0 -72 50 -118t128 -46t132.5 47t68.5 125l107 617h274l-109 -621q-32 -195 -162 -306.5t-325 -111.5q-194 0 -316 111.5t-122 288.5z" />
<glyph unicode="v" horiz-adv-x="1140" d="M100 1014h281l154 -570l352 570h309l-684 -1039h-92z" />
<glyph unicode="w" horiz-adv-x="1753" d="M100 1014h281l143 -590l387 612h90l173 -587l331 565h303l-651 -1039h-92l-182 590l-400 -590h-92z" />
<glyph unicode="x" horiz-adv-x="1085" d="M-70 0l457 526l-256 488h295l145 -299l240 299h326l-437 -508l283 -506h-295l-170 319l-262 -319h-326z" />
<glyph unicode="y" horiz-adv-x="1196" d="M-12 -164l166 182q85 -86 157.5 -123.5t157.5 -37.5q198 0 236 200l10 60q-116 -84 -254 -84q-154 0 -252 94q-96 96 -96 244q0 37 12 108l94 535h275l-95 -529q-6 -42 -6 -57q0 -72 47 -115t125 -43q77 0 137 48t72 128l100 568h277l-172 -965q-35 -204 -172 -323 t-338 -119q-143 0 -269.5 60t-211.5 169z" />
<glyph unicode="z" horiz-adv-x="958" d="M-51 0l12 74l602 706h-434l41 234h842l-15 -74l-598 -707h482l-41 -233h-891z" />
<glyph unicode="{" horiz-adv-x="841" d="M84 487l43 236h135q73 0 102 35t29 123v202q0 204 96.5 308t286.5 104h162l-37 -223h-117q-86 0 -123.5 -48.5t-37.5 -160.5v-186q0 -136 -41 -196t-146 -77q63 -12 92 -43.5t29 -85.5q0 -69 -61 -225q-22 -59 -31.5 -87t-17 -60t-7.5 -54q0 -94 113 -94h115l-37 -221 h-168q-125 0 -197.5 64.5t-72.5 174.5q0 53 14 105.5t53 163.5q49 125 49 172q0 38 -23 55.5t-73 17.5h-129z" />
<glyph unicode="|" horiz-adv-x="679" d="M258 -248v1845h229v-1845h-229z" />
<glyph unicode="}" horiz-adv-x="845" d="M-53 -266l37 221h116q88 0 124 49t36 166v168q0 136 42.5 196.5t150.5 73.5q-125 27 -125 135q0 39 12.5 86.5t46.5 145.5q55 157 55 205q0 92 -110 92h-117l39 223h168q124 0 197 -65.5t73 -176.5q0 -54 -15 -113t-52 -163q-50 -133 -50 -180q0 -38 23 -56t74 -18h129 l-43 -234h-135q-72 0 -101.5 -36.5t-29.5 -126.5v-176q0 -416 -383 -416h-162z" />
<glyph unicode="~" horiz-adv-x="1146" d="M88 526q10 178 81 273.5t189 95.5q90 0 197 -70l158 -104q43 -30 66.5 -41.5t47.5 -11.5q35 0 52.5 26.5t25.5 87.5h211q-12 -178 -82.5 -273t-187.5 -95q-97 0 -197 69l-157 105q-74 51 -117 51q-34 0 -52 -28t-24 -85h-211z" />
<glyph unicode="&#xa1;" horiz-adv-x="710" d="M39 -369l209 885h225l-98 -885h-336zM227 848q0 81 54.5 134.5t134.5 53.5q84 0 138 -53t54 -135t-55 -136.5t-137 -54.5q-80 0 -134.5 55t-54.5 136z" />
<glyph unicode="&#xa2;" horiz-adv-x="1142" d="M96 639q0 210 144 367.5t358 185.5l59 342h242l-61 -356q210 -60 295 -252l-203 -133q-101 155 -258 155q-126 0 -209 -86q-84 -87 -84 -215q0 -117 70.5 -188.5t187.5 -71.5q160 0 260 133l176 -149q-72 -106 -180.5 -166t-239.5 -68l-57 -336h-242l64 371 q-147 56 -234.5 181.5t-87.5 285.5z" />
<glyph unicode="&#xa3;" horiz-adv-x="1163" d="M0 0l10 59q163 104 245 201t95 205h-252l41 235h174q-1 4 -3.5 12.5t-7.5 23.5t-9 26q-33 95 -33 180q0 185 133 308.5t332 123.5q195 0 314 -107t139 -302l-244 -62q-27 217 -201 217q-88 0 -144.5 -61.5t-56.5 -157.5q0 -23 4.5 -48t12 -49.5t14 -41.5t15.5 -37.5 t10 -24.5h325l-41 -235h-245q-18 -135 -109 -232h506l-41 -233h-983z" />
<glyph unicode="&#xa4;" horiz-adv-x="1366" d="M33 190l205 203q-72 116 -72 252q0 187 113 336l-154 176l170 160l158 -182q120 69 268 69q174 0 307 -86l215 199l156 -170l-209 -193q70 -113 70 -249q0 -191 -117 -343l162 -184l-172 -160l-168 195q-129 -66 -263 -66q-164 0 -301 84l-211 -213zM449 662 q0 -113 69.5 -187t177.5 -74q118 0 199.5 83.5t81.5 205.5q0 112 -71.5 186t-180.5 74q-116 0 -196 -83.5t-80 -204.5z" />
<glyph unicode="&#xa5;" horiz-adv-x="1226" d="M57 195l37 223h371l20 127h-366l37 223h305l-299 584h289l225 -439l377 439h317l-506 -584h307l-38 -223h-371l-21 -127h369l-39 -223h-369l-34 -195h-277l35 195h-369z" />
<glyph unicode="&#xa6;" horiz-adv-x="679" d="M258 -248v615h229v-615h-229zM258 983v614h229v-614h-229z" />
<glyph unicode="&#xa7;" horiz-adv-x="1220" d="M76 -33l178 133q37 -69 95.5 -107t127.5 -38q60 0 94.5 28t34.5 76q0 35 -24.5 67.5t-87.5 82.5l-158 125q-124 93 -181 176t-57 170q0 110 77 195t208 122q-6 27 -6 56q0 142 112 236.5t281 94.5q139 0 243 -63.5t154 -179.5l-178 -131q-37 69 -95.5 106t-127.5 37 q-60 0 -94.5 -27.5t-34.5 -74.5q0 -37 24.5 -69.5t86.5 -80.5l157 -125q125 -97 181.5 -179.5t56.5 -168.5q0 -110 -76 -194.5t-207 -122.5q6 -27 6 -56q0 -142 -112.5 -236.5t-280.5 -94.5q-139 0 -243 63.5t-154 179.5zM360 698q0 -41 30 -82.5t99 -97.5l175 -137 q63 -52 112 -107q50 24 78.5 60t28.5 78t-29.5 82.5t-101.5 95.5l-172 139q-70 56 -113 105q-50 -20 -78.5 -56.5t-28.5 -79.5z" />
<glyph unicode="&#xa8;" horiz-adv-x="1024" d="M250 1382q0 67 49.5 113.5t116.5 46.5q69 0 117.5 -46.5t48.5 -113.5q0 -63 -49.5 -110t-116.5 -47q-66 0 -116 47t-50 110zM758 1382q0 67 49.5 113.5t116.5 46.5q69 0 117.5 -46.5t48.5 -113.5q0 -63 -49.5 -110t-116.5 -47q-63 0 -114.5 48t-51.5 109z" />
<glyph unicode="&#xa9;" horiz-adv-x="1615" d="M119 645q-4 142 57.5 278.5t164.5 236.5t244 160t289 56q138 2 265.5 -51t220 -143t147 -214.5t52.5 -258.5q5 -191 -100 -363t-281.5 -273.5t-372.5 -97.5q-139 -3 -267 50t-220.5 144t-146.5 216t-52 260zM297 647q0 -220 147 -364t371 -144q112 -2 217.5 44t182 123.5 t122 184.5t43.5 220q3 137 -66 254t-188.5 183.5t-259.5 63.5q-113 2 -219 -43.5t-183.5 -122t-123 -182t-43.5 -217.5zM457 655q0 164 119 282t286 118q204 0 314 -176l-158 -117q-64 102 -164 102q-80 0 -132 -57t-52 -145q0 -78 46.5 -126.5t121.5 -48.5q87 0 161 86 l134 -129q-129 -147 -310 -147q-158 0 -262 102.5t-104 255.5z" />
<glyph unicode="&#xaa;" horiz-adv-x="856" d="M111 784q0 154 100.5 263.5t241.5 109.5q127 0 192 -80l12 68h211l-114 -645h-187l6 63q-69 -78 -184 -78q-120 0 -201 84q-77 86 -77 215zM324 807q0 -60 36.5 -96.5t96.5 -36.5q63 0 104 44.5t41 112.5q0 60 -36 99t-91 39q-63 0 -107 -46.5t-44 -115.5z" />
<glyph unicode="&#xab;" horiz-adv-x="1222" d="M63 520l15 74l463 430l157 -162l-331 -315l221 -309l-193 -146zM590 520l14 74l463 430l158 -162l-332 -315l221 -309l-192 -146z" />
<glyph unicode="&#xac;" horiz-adv-x="1146" d="M96 539l43 235h903l-98 -563h-260l57 328h-645z" />
<glyph unicode="&#xad;" horiz-adv-x="696" d="M102 541l41 231h512l-41 -231h-512z" />
<glyph unicode="&#xae;" horiz-adv-x="1189" d="M137 862q-2 106 43 208t121 176.5t179 119.5t210 43q138 0 253.5 -67t182 -182t66.5 -251q2 -107 -43.5 -209.5t-121.5 -177.5t-178.5 -119.5t-209.5 -42.5q-133 -3 -250.5 65.5t-186 186t-65.5 250.5zM272 864q0 -161 107 -268t268 -107q167 0 288.5 124.5t121.5 297.5 q0 156 -108 262.5t-265 106.5q-171 0 -291.5 -121.5t-120.5 -294.5zM418 641l90 514h207q79 0 130.5 -48t51.5 -122q0 -109 -109 -162l107 -182h-158l-90 154h-59l-27 -154h-143zM610 918h62q36 0 57 16t21 45q0 23 -16.5 37t-41.5 14h-63z" />
<glyph unicode="&#xaf;" horiz-adv-x="1024" d="M342 1274l39 217h618l-38 -217h-619z" />
<glyph unicode="&#xb0;" horiz-adv-x="735" d="M147 1053q0 129 98.5 225t233.5 96q131 0 221.5 -88t90.5 -215q0 -133 -98.5 -229.5t-235.5 -96.5q-129 0 -219.5 90t-90.5 218zM332 1057q0 -60 37 -97.5t98 -37.5q60 0 99.5 40t39.5 103q0 59 -37 96t-94 37q-63 0 -103 -39.5t-40 -101.5z" />
<glyph unicode="&#xb1;" horiz-adv-x="1146" d="M25 0l38 221h924l-39 -221h-923zM137 645l41 223h332l47 275h264l-49 -275h330l-39 -223h-330l-51 -289h-264l51 289h-332z" />
<glyph unicode="&#xb2;" horiz-adv-x="788" d="M115 743l6 43l362 328q78 72 111 121.5t33 93.5t-25.5 70t-69.5 26q-51 0 -79.5 -38t-28.5 -107v-20h-205q-2 8 -2 30q0 138 93 231t231 93q131 0 214 -75t83 -196q0 -88 -56 -165q-59 -82 -200 -199l-60 -49h262l-34 -185z" />
<glyph unicode="&#xb3;" horiz-adv-x="737" d="M104 958l162 84q29 -66 66 -95t92 -29q59 0 94 31.5t35 82.5q0 96 -141 96h-113l8 52l199 233h-254l35 184h559l-10 -55l-222 -266q67 -31 106.5 -94t39.5 -140q0 -132 -97.5 -222.5t-240.5 -90.5q-119 0 -203 60.5t-115 168.5z" />
<glyph unicode="&#xb4;" horiz-adv-x="1024" d="M383 1169l223 428h348l-8 -49l-346 -379h-217z" />
<glyph unicode="&#xb5;" horiz-adv-x="1249" d="M-14 -369l243 1383h277l-100 -572q-1 -4 -3.5 -16.5t-4 -24.5t-1.5 -22q0 -73 48 -117.5t126 -44.5q81 0 137.5 48t69.5 132l111 617h274l-116 -654q-9 -49 -9 -73q0 -74 84 -74q42 0 52 2l-41 -229q-59 -9 -107 -9q-158 0 -223 111q-107 -113 -260 -113q-130 0 -207 80 l-74 -424h-276z" />
<glyph unicode="&#xb6;" horiz-adv-x="1429" d="M143 897q0 201 142.5 328t365.5 127h119v-908h-119q-224 0 -366 126.5t-142 326.5zM582 -133q96 -8 131 -8q100 0 145 37.5t45 126.5v1329h275v-1358q0 -193 -104.5 -290t-301.5 -97q-96 0 -190 24v236z" />
<glyph unicode="&#xb7;" horiz-adv-x="573" d="M125 655q0 80 55.5 135.5t136.5 55.5q79 0 134 -55.5t55 -135.5q0 -81 -54.5 -135.5t-134.5 -54.5q-82 0 -137 54t-55 136z" />
<glyph unicode="&#xb8;" horiz-adv-x="1024" d="M127 -358l31 178q86 -13 127 -13q74 0 108.5 39t34.5 123q0 32 -10 70l112 39q51 -32 80 -85t29 -110q0 -116 -95 -196t-233 -80q-97 0 -184 35z" />
<glyph unicode="&#xb9;" horiz-adv-x="757" d="M131 745l33 185h207l86 483h-191l33 184h395l-116 -667h176l-33 -185h-590z" />
<glyph unicode="&#xba;" horiz-adv-x="808" d="M115 805q0 145 107 249.5t259 104.5q141 0 235.5 -92t94.5 -227q0 -147 -109 -251t-260 -104q-142 0 -234.5 91t-92.5 229zM326 809q0 -60 35 -96.5t92 -36.5q63 0 104 44.5t41 113.5q0 60 -34 96.5t-91 36.5q-63 0 -105 -45t-42 -113z" />
<glyph unicode="&#xbb;" horiz-adv-x="1222" d="M23 256l331 315l-221 308l193 145l329 -428l-12 -74l-465 -430zM547 256l332 315l-222 308l193 145l330 -428l-13 -74l-465 -430z" />
<glyph unicode="&#xbc;" horiz-adv-x="1951" d="M88 500l33 184h207l86 483h-191l33 185h395l-116 -668h176l-33 -184h-590zM444 0l1010 1352h229l-1011 -1352h-228zM1143 131l10 55l348 668h228l-289 -547h168l41 215h184l-37 -215h102l-32 -176h-101l-22 -131h-189l23 131h-434z" />
<glyph unicode="&#xbd;" horiz-adv-x="2019" d="M88 500l33 184h207l86 483h-191l33 185h395l-116 -668h176l-33 -184h-590zM444 0l1010 1352h229l-1011 -1352h-228zM1217 -2l6 43l362 328q78 72 111 121.5t33 93.5t-25.5 70t-69.5 26q-51 0 -79.5 -38t-28.5 -107v-21h-205q-2 8 -2 31q0 138 92.5 230.5t230.5 92.5 q131 0 214 -74.5t83 -195.5q0 -90 -55 -166q-58 -80 -201 -199l-59 -49h262l-35 -184z" />
<glyph unicode="&#xbe;" horiz-adv-x="1859" d="M61 713l162 84q29 -66 66 -95.5t92 -29.5q59 0 94 31.5t35 82.5q0 97 -141 97h-113l8 51l199 233h-254l35 185h559l-10 -56l-222 -266q67 -31 106.5 -93.5t39.5 -139.5q0 -132 -98 -223t-240 -91q-119 0 -203 60.5t-115 169.5zM352 0l1010 1352h229l-1011 -1352h-228z M1051 131l10 55l348 668h227l-288 -547h168l40 215h185l-37 -215h102l-32 -176h-101l-22 -131h-189l23 131h-434z" />
<glyph unicode="&#xbf;" horiz-adv-x="925" d="M-25 -78q0 98 51.5 177t176.5 171q78 59 118 108t58 118h229q-2 -106 -42 -185t-140 -149q-94 -70 -133 -113q-31 -39 -31 -84q0 -49 30.5 -76.5t84.5 -27.5t97 32t87 105l205 -121q-69 -133 -176 -201.5t-244 -68.5q-167 0 -269 87t-102 228zM336 848q0 82 54 135 t136 53t136.5 -53.5t54.5 -134.5q0 -82 -54.5 -136.5t-136.5 -54.5q-81 0 -135.5 55.5t-54.5 135.5z" />
<glyph unicode="&#xc0;" horiz-adv-x="1353" d="M-55 0l846 1376h92l360 -1376h-287l-45 176h-546l-107 -176h-313zM502 403h350l-96 447zM543 1815l8 49h311l84 -381h-198z" />
<glyph unicode="&#xc1;" horiz-adv-x="1353" d="M-55 0l846 1376h92l360 -1376h-287l-45 176h-546l-107 -176h-313zM502 403h350l-96 447zM739 1483l199 381h348l-8 -49l-330 -332h-209z" />
<glyph unicode="&#xc2;" horiz-adv-x="1353" d="M-55 0l846 1376h92l360 -1376h-287l-45 176h-546l-107 -176h-313zM455 1483l370 381h183l235 -381h-194l-150 166l-215 -166h-229zM502 403h350l-96 447z" />
<glyph unicode="&#xc3;" horiz-adv-x="1353" d="M-55 0l846 1376h92l360 -1376h-287l-45 176h-546l-107 -176h-313zM449 1505q14 171 74 257.5t173 86.5q51 0 87 -12t91 -43l46 -29q51 -30 84 -30q29 0 45 22t24 72h209q-25 -344 -250 -344q-47 0 -81 11.5t-93 43.5l-47 29q-58 30 -82 30q-60 0 -72 -94h-208zM502 403 h350l-96 447z" />
<glyph unicode="&#xc4;" horiz-adv-x="1353" d="M-55 0l846 1376h92l360 -1376h-287l-45 176h-546l-107 -176h-313zM455 1667q0 67 48 113.5t115 46.5q69 0 118.5 -46.5t49.5 -113.5q0 -63 -49.5 -110.5t-118.5 -47.5q-63 0 -113 48.5t-50 109.5zM502 403h350l-96 447zM995 1665q0 67 49.5 114.5t116.5 47.5 q68 0 117 -47.5t49 -114.5q0 -63 -49.5 -110.5t-116.5 -47.5q-66 0 -116 47.5t-50 110.5z" />
<glyph unicode="&#xc5;" horiz-adv-x="1353" d="M-55 0l846 1376h92l360 -1376h-287l-45 176h-546l-107 -176h-313zM502 403h350l-96 447zM618 1620q0 109 80 186q79 76 195 76q106 0 177 -67.5t71 -169.5q0 -109 -80.5 -186t-194.5 -77q-106 0 -177 68t-71 170zM797 1630q0 -37 21 -59.5t56 -22.5q37 0 64 26t27 64 q0 35 -22.5 56.5t-57.5 21.5q-37 0 -62.5 -24.5t-25.5 -61.5z" />
<glyph unicode="&#xc6;" horiz-adv-x="1748" d="M-76 0l928 1352h936l-41 -250h-623l-2 -275h408l-39 -235h-369l-2 -342h500l-43 -250h-729v176h-477l-119 -176h-328zM524 406h326l8 514z" />
<glyph unicode="&#xc7;" horiz-adv-x="1474" d="M115 629q-4 148 58.5 287.5t167.5 241t249 161.5t297 57q201 0 354.5 -95.5t231.5 -268.5l-226 -135q-120 243 -377 243q-201 0 -336 -137.5t-135 -341.5q0 -183 112.5 -296.5t291.5 -113.5q233 0 397 209l195 -155q-109 -148 -268.5 -229t-344.5 -81q-140 -2 -264.5 48 t-213.5 137t-140 209.5t-49 259.5zM371 -358l30 178q86 -13 127 -13q74 0 109 39t35 123q0 32 -10 70l112 39q51 -32 80 -85t29 -110q0 -116 -95 -196t-233 -80q-97 0 -184 35z" />
<glyph unicode="&#xc8;" horiz-adv-x="1175" d="M70 0l237 1352h910l-43 -250h-635l-50 -275h467l-41 -235h-466l-60 -342h658l-43 -250h-934zM467 1815l8 49h311l84 -381h-198z" />
<glyph unicode="&#xc9;" horiz-adv-x="1175" d="M70 0l237 1352h910l-43 -250h-635l-50 -275h467l-41 -235h-466l-60 -342h658l-43 -250h-934zM662 1483l198 381h348l-8 -49l-330 -332h-208z" />
<glyph unicode="&#xca;" horiz-adv-x="1175" d="M70 0l237 1352h910l-43 -250h-635l-50 -275h467l-41 -235h-466l-60 -342h658l-43 -250h-934zM377 1483l371 381h182l235 -381h-194l-150 166l-215 -166h-229z" />
<glyph unicode="&#xcb;" horiz-adv-x="1175" d="M70 0l237 1352h910l-43 -250h-635l-50 -275h467l-41 -235h-466l-60 -342h658l-43 -250h-934zM377 1667q0 67 48.5 113.5t115.5 46.5q69 0 118.5 -46.5t49.5 -113.5q0 -63 -49.5 -110.5t-118.5 -47.5q-63 0 -113.5 48.5t-50.5 109.5zM918 1665q0 67 49 114.5t116 47.5 q68 0 117 -47.5t49 -114.5q0 -63 -49.5 -110.5t-116.5 -47.5q-66 0 -115.5 47.5t-49.5 110.5z" />
<glyph unicode="&#xcc;" horiz-adv-x="585" d="M70 0l237 1352h277l-238 -1352h-276zM162 1815l8 49h311l84 -381h-198z" />
<glyph unicode="&#xcd;" horiz-adv-x="585" d="M70 0l237 1352h277l-238 -1352h-276zM356 1483l199 381h348l-8 -49l-330 -332h-209z" />
<glyph unicode="&#xce;" horiz-adv-x="585" d="M70 0l237 1352h277l-238 -1352h-276zM72 1483l370 381h183l235 -381h-194l-150 166l-215 -166h-229z" />
<glyph unicode="&#xcf;" horiz-adv-x="585" d="M70 0l237 1352h277l-238 -1352h-276zM72 1667q0 67 48.5 113.5t115.5 46.5q69 0 118 -46.5t49 -113.5q0 -64 -49.5 -111t-117.5 -47q-63 0 -113.5 48.5t-50.5 109.5zM612 1665q0 67 49.5 114.5t116.5 47.5q68 0 117 -47.5t49 -114.5q0 -63 -49.5 -110.5t-116.5 -47.5 q-66 0 -116 47.5t-50 110.5z" />
<glyph unicode="&#xd0;" horiz-adv-x="1433" d="M-10 526l41 232h182l104 594h383q193 2 350.5 -79t246 -225.5t85.5 -322.5q3 -207 -100 -374t-288 -260.5t-414 -90.5h-500l92 526h-182zM399 248l199 2q222 0 361 129t139 332q0 180 -113 285.5t-305 105.5h-129l-62 -344h211l-41 -232h-210z" />
<glyph unicode="&#xd1;" horiz-adv-x="1460" d="M70 0l241 1376h90l637 -852l144 828h276l-241 -1377h-93l-635 859l-143 -834h-276zM504 1505q14 171 74.5 257.5t173.5 86.5q51 0 87 -12t91 -43l45 -29q51 -30 84 -30q29 0 45 22t24 72h209q-25 -344 -250 -344q-47 0 -81 11.5t-93 43.5l-47 29q-58 30 -82 30 q-59 0 -71 -94h-209z" />
<glyph unicode="&#xd2;" horiz-adv-x="1593" d="M115 629q-3 150 59.5 289.5t167.5 240.5t247.5 160.5t293.5 56.5q139 2 263.5 -48.5t212 -138t137.5 -209t48 -257.5q3 -150 -59.5 -289.5t-167.5 -241t-247.5 -161t-293.5 -56.5q-138 -2 -262 48.5t-212 138t-138.5 210t-48.5 257.5zM399 641q0 -182 111 -296t285 -114 q128 0 235 64t168.5 175t61.5 243q0 180 -111.5 293.5t-286.5 113.5q-194 0 -328.5 -138.5t-134.5 -340.5zM662 1815l8 49h311l84 -381h-199z" />
<glyph unicode="&#xd3;" horiz-adv-x="1593" d="M115 629q-3 150 59.5 289.5t167.5 240.5t247.5 160.5t293.5 56.5q139 2 263.5 -48.5t212 -138t137.5 -209t48 -257.5q3 -150 -59.5 -289.5t-167.5 -241t-247.5 -161t-293.5 -56.5q-138 -2 -262 48.5t-212 138t-138.5 210t-48.5 257.5zM399 641q0 -182 111 -296t285 -114 q128 0 235 64t168.5 175t61.5 243q0 180 -111.5 293.5t-286.5 113.5q-194 0 -328.5 -138.5t-134.5 -340.5zM856 1483l199 381h348l-8 -49l-330 -332h-209z" />
<glyph unicode="&#xd4;" horiz-adv-x="1593" d="M115 629q-3 150 59.5 289.5t167.5 240.5t247.5 160.5t293.5 56.5q139 2 263.5 -48.5t212 -138t137.5 -209t48 -257.5q3 -150 -59.5 -289.5t-167.5 -241t-247.5 -161t-293.5 -56.5q-138 -2 -262 48.5t-212 138t-138.5 210t-48.5 257.5zM399 641q0 -182 111 -296t285 -114 q128 0 235 64t168.5 175t61.5 243q0 180 -111.5 293.5t-286.5 113.5q-194 0 -328.5 -138.5t-134.5 -340.5zM571 1483l371 381h182l236 -381h-195l-149 166l-215 -166h-230z" />
<glyph unicode="&#xd5;" horiz-adv-x="1593" d="M115 629q-3 150 59.5 289.5t167.5 240.5t247.5 160.5t293.5 56.5q139 2 263.5 -48.5t212 -138t137.5 -209t48 -257.5q3 -150 -59.5 -289.5t-167.5 -241t-247.5 -161t-293.5 -56.5q-138 -2 -262 48.5t-212 138t-138.5 210t-48.5 257.5zM399 641q0 -182 111 -296t285 -114 q128 0 235 64t168.5 175t61.5 243q0 180 -111.5 293.5t-286.5 113.5q-194 0 -328.5 -138.5t-134.5 -340.5zM567 1505q14 171 74.5 257.5t173.5 86.5q51 0 87 -12t91 -43l45 -29q51 -30 84 -30q29 0 46 22.5t24 71.5h209q-25 -344 -250 -344q-47 0 -81 11.5t-93 43.5l-47 29 q-58 30 -82 30q-60 0 -72 -94h-209z" />
<glyph unicode="&#xd6;" horiz-adv-x="1593" d="M115 629q-3 150 59.5 289.5t167.5 240.5t247.5 160.5t293.5 56.5q139 2 263.5 -48.5t212 -138t137.5 -209t48 -257.5q3 -150 -59.5 -289.5t-167.5 -241t-247.5 -161t-293.5 -56.5q-138 -2 -262 48.5t-212 138t-138.5 210t-48.5 257.5zM399 641q0 -182 111 -296t285 -114 q128 0 235 64t168.5 175t61.5 243q0 180 -111.5 293.5t-286.5 113.5q-194 0 -328.5 -138.5t-134.5 -340.5zM571 1667q0 67 48.5 113.5t115.5 46.5q69 0 118.5 -46.5t49.5 -113.5q0 -63 -49.5 -110.5t-118.5 -47.5q-63 0 -113.5 48.5t-50.5 109.5zM1112 1665q0 67 49.5 114.5 t116.5 47.5q68 0 117 -47.5t49 -114.5q0 -63 -49.5 -110.5t-116.5 -47.5q-66 0 -116 47.5t-50 110.5z" />
<glyph unicode="&#xd7;" horiz-adv-x="1146" d="M86 401l354 277l-247 319l184 142l248 -316l352 277l143 -180l-356 -277l250 -321l-183 -142l-249 316l-355 -279z" />
<glyph unicode="&#xd8;" horiz-adv-x="1558" d="M55 109l152 145q-109 165 -109 375q-3 148 58.5 287.5t165 241t246 161.5t294.5 57q222 0 391 -114l156 149l158 -168l-152 -145q111 -166 111 -375q3 -148 -59 -287.5t-166.5 -241t-247.5 -162t-295 -57.5q-221 0 -389 115l-156 -149zM373 641q0 -109 37 -190l651 622 q-92 57 -217 57q-198 0 -334.5 -141t-136.5 -348zM561 276q94 -55 213 -55q199 0 337 143t138 349q0 103 -39 188z" />
<glyph unicode="&#xd9;" horiz-adv-x="1433" d="M147 465q0 55 15 131l133 756h276l-135 -760q-12 -82 -12 -107q0 -111 77.5 -182.5t198.5 -71.5q122 0 210 76t108 203l147 842h277l-152 -860q-43 -243 -205 -379q-159 -138 -397 -138t-389.5 137.5t-151.5 352.5zM586 1815l8 49h311l84 -381h-198z" />
<glyph unicode="&#xda;" horiz-adv-x="1433" d="M147 465q0 55 15 131l133 756h276l-135 -760q-12 -82 -12 -107q0 -111 77.5 -182.5t198.5 -71.5q122 0 210 76t108 203l147 842h277l-152 -860q-43 -243 -205 -379q-159 -138 -397 -138t-389.5 137.5t-151.5 352.5zM780 1483l199 381h348l-8 -49l-330 -332h-209z" />
<glyph unicode="&#xdb;" horiz-adv-x="1433" d="M147 465q0 55 15 131l133 756h276l-135 -760q-12 -82 -12 -107q0 -111 77.5 -182.5t198.5 -71.5q122 0 210 76t108 203l147 842h277l-152 -860q-43 -243 -205 -379q-159 -138 -397 -138t-389.5 137.5t-151.5 352.5zM496 1483l370 381h183l235 -381h-194l-150 166 l-215 -166h-229z" />
<glyph unicode="&#xdc;" horiz-adv-x="1433" d="M147 465q0 55 15 131l133 756h276l-135 -760q-12 -82 -12 -107q0 -111 77.5 -182.5t198.5 -71.5q122 0 210 76t108 203l147 842h277l-152 -860q-43 -243 -205 -379q-159 -138 -397 -138t-389.5 137.5t-151.5 352.5zM496 1667q0 67 48 113.5t115 46.5q69 0 118.5 -46.5 t49.5 -113.5q0 -63 -49.5 -110.5t-118.5 -47.5q-63 0 -113 48.5t-50 109.5zM1036 1665q0 67 49.5 114.5t116.5 47.5q68 0 117 -47.5t49 -114.5q0 -63 -49.5 -110.5t-116.5 -47.5q-66 0 -116 47.5t-50 110.5z" />
<glyph unicode="&#xdd;" horiz-adv-x="1277" d="M176 1352h279l221 -537l389 537h319l-610 -828l-92 -524h-276l94 537zM690 1483l199 381h348l-8 -49l-330 -332h-209z" />
<glyph unicode="&#xde;" horiz-adv-x="1214" d="M70 0l237 1352h277l-37 -207h166q219 0 344 -113q129 -111 129 -299q0 -212 -154 -341.5t-405 -129.5h-236l-45 -262h-276zM434 506h236q106 0 168.5 57t62.5 154q0 88 -51 137t-143 49h-201z" />
<glyph unicode="&#xdf;" horiz-adv-x="1335" d="M53 0l195 1110q37 213 179 332t359 119q171 0 284.5 -91t113.5 -229q0 -108 -72 -231l-98 -162q-53 -90 -53 -127q0 -31 21 -56.5t79 -68.5l39 -31q80 -64 116.5 -121t36.5 -133q0 -142 -112.5 -239t-278.5 -97q-220 0 -379 150l123 190q61 -51 130.5 -79.5t129.5 -28.5 q56 0 86.5 23.5t30.5 66.5q0 28 -15.5 47t-68.5 59l-51 39q-89 68 -125.5 118t-36.5 110q0 73 64 180l90 158q61 104 61 172q0 62 -40.5 96.5t-112.5 34.5q-93 0 -153.5 -60.5t-80.5 -175.5l-186 -1075h-275z" />
<glyph unicode="&#xe0;" d="M76 457q-2 118 40.5 226.5t116.5 186t175.5 122.5t212.5 44q220 0 323 -141l21 119h274l-174 -1014h-258l18 104q-120 -129 -309 -129t-314.5 137.5t-125.5 344.5zM358 483q0 -117 67.5 -188.5t176.5 -71.5q120 0 199 88t82 221q0 115 -67.5 187t-176.5 72 q-118 0 -199.5 -89.5t-81.5 -218.5zM406 1548l16 49h309l12 -428h-192z" />
<glyph unicode="&#xe1;" d="M76 457q-2 118 40.5 226.5t116.5 186t175.5 122.5t212.5 44q220 0 323 -141l21 119h274l-174 -1014h-258l18 104q-120 -129 -309 -129t-314.5 137.5t-125.5 344.5zM358 483q0 -117 67.5 -188.5t176.5 -71.5q120 0 199 88t82 221q0 115 -67.5 187t-176.5 72 q-118 0 -199.5 -89.5t-81.5 -218.5zM553 1169l223 428h348l-8 -49l-346 -379h-217z" />
<glyph unicode="&#xe2;" d="M76 457q-2 118 40.5 226.5t116.5 186t175.5 122.5t212.5 44q220 0 323 -141l21 119h274l-174 -1014h-258l18 104q-120 -129 -309 -129t-314.5 137.5t-125.5 344.5zM311 1169l353 428h180l200 -428h-190l-127 193l-203 -193h-213zM358 483q0 -117 67.5 -188.5t176.5 -71.5 q120 0 199 88t82 221q0 115 -67.5 187t-176.5 72q-118 0 -199.5 -89.5t-81.5 -218.5z" />
<glyph unicode="&#xe3;" d="M76 457q-2 118 40.5 226.5t116.5 186t175.5 122.5t212.5 44q220 0 323 -141l21 119h274l-174 -1014h-258l18 104q-120 -129 -309 -129t-314.5 137.5t-125.5 344.5zM307 1208q12 166 74.5 256t171.5 90q79 0 149 -49l56 -37q49 -34 78 -34q58 0 73 98h207 q-12 -166 -74.5 -256t-171.5 -90q-75 0 -149 47l-55 39q-50 35 -78 35q-60 0 -72 -99h-209zM358 483q0 -117 67.5 -188.5t176.5 -71.5q120 0 199 88t82 221q0 115 -67.5 187t-176.5 72q-118 0 -199.5 -89.5t-81.5 -218.5z" />
<glyph unicode="&#xe4;" d="M76 457q-2 118 40.5 226.5t116.5 186t175.5 122.5t212.5 44q220 0 323 -141l21 119h274l-174 -1014h-258l18 104q-120 -129 -309 -129t-314.5 137.5t-125.5 344.5zM305 1382q0 67 49.5 113.5t116.5 46.5q69 0 117.5 -46.5t48.5 -113.5q0 -63 -49.5 -110t-116.5 -47 q-66 0 -116 47t-50 110zM358 483q0 -117 67.5 -188.5t176.5 -71.5q120 0 199 88t82 221q0 115 -67.5 187t-176.5 72q-118 0 -199.5 -89.5t-81.5 -218.5zM813 1382q0 67 49.5 113.5t116.5 46.5q69 0 117.5 -46.5t48.5 -113.5q0 -63 -49.5 -110t-116.5 -47q-63 0 -114.5 48 t-51.5 109z" />
<glyph unicode="&#xe5;" d="M76 457q-2 118 40.5 226.5t116.5 186t175.5 122.5t212.5 44q220 0 323 -141l21 119h274l-174 -1014h-258l18 104q-120 -129 -309 -129t-314.5 137.5t-125.5 344.5zM358 483q0 -117 67.5 -188.5t176.5 -71.5q120 0 199 88t82 221q0 115 -67.5 187t-176.5 72 q-118 0 -199.5 -89.5t-81.5 -218.5zM461 1362q0 109 78.5 185.5t193.5 76.5q106 0 177 -68t71 -170q0 -109 -80 -186q-76 -76 -192 -76q-106 0 -177 68t-71 170zM637 1370q0 -35 22.5 -58.5t55.5 -23.5q37 0 63.5 26t26.5 64q0 36 -22 58t-58 22q-37 0 -62.5 -25t-25.5 -63z " />
<glyph unicode="&#xe6;" horiz-adv-x="1781" d="M39 258q0 155 114.5 241.5t321.5 86.5h254q4 46 4 55q0 75 -46.5 116.5t-131.5 41.5q-136 0 -276 -123l-107 201q196 159 422 159q230 0 324 -143q153 143 360 143q190 0 316 -126t126 -316q0 -107 -34 -188h-703q20 -94 90 -144.5t182 -50.5q150 0 287 94l100 -184 q-190 -146 -407 -146q-127 0 -232 50t-172 139q-148 -189 -421 -189q-174 0 -272.5 75t-98.5 208zM322 287q0 -51 37 -81t102 -30q90 0 152.5 51.5t76.5 134.5l8 44h-215q-78 0 -119.5 -31t-41.5 -88zM985 586h471v20q0 97 -55 153t-152 56q-98 0 -169.5 -62t-94.5 -167z " />
<glyph unicode="&#xe7;" horiz-adv-x="1144" d="M78 475q0 117 44.5 221t121 178.5t182.5 118t225 43.5q152 0 268.5 -70.5t172.5 -195.5l-205 -135q-95 153 -246 153q-120 0 -202.5 -87.5t-82.5 -213.5q0 -117 70.5 -190.5t181.5 -73.5q145 0 248 133l178 -153q-75 -112 -187.5 -170t-254.5 -58q-226 0 -370 140 t-144 360zM209 -358l31 178q86 -13 127 -13q74 0 108.5 39t34.5 123q0 32 -10 70l112 39q51 -32 80 -85t29 -110q0 -116 -95 -196t-233 -80q-97 0 -184 35z" />
<glyph unicode="&#xe8;" horiz-adv-x="1148" d="M76 475q-2 112 43 217t121.5 181t181.5 120.5t217 42.5q199 0 325 -124.5t126 -321.5q0 -89 -35 -176h-705q19 -98 89.5 -150.5t185.5 -52.5q149 0 286 94l101 -186q-176 -144 -412 -144q-230 0 -377 140t-147 360zM356 606h469q-1 97 -57 153t-150 56q-93 0 -163 -56 t-99 -153zM391 1548l17 49h309l12 -428h-192z" />
<glyph unicode="&#xe9;" horiz-adv-x="1148" d="M76 475q-2 112 43 217t121.5 181t181.5 120.5t217 42.5q199 0 325 -124.5t126 -321.5q0 -89 -35 -176h-705q19 -98 89.5 -150.5t185.5 -52.5q149 0 286 94l101 -186q-176 -144 -412 -144q-230 0 -377 140t-147 360zM356 606h469q-1 97 -57 153t-150 56q-93 0 -163 -56 t-99 -153zM539 1169l223 428h348l-8 -49l-346 -379h-217z" />
<glyph unicode="&#xea;" horiz-adv-x="1148" d="M76 475q-2 112 43 217t121.5 181t181.5 120.5t217 42.5q199 0 325 -124.5t126 -321.5q0 -89 -35 -176h-705q19 -98 89.5 -150.5t185.5 -52.5q149 0 286 94l101 -186q-176 -144 -412 -144q-230 0 -377 140t-147 360zM297 1169l352 428h180l201 -428h-190l-127 193 l-203 -193h-213zM356 606h469q-1 97 -57 153t-150 56q-93 0 -163 -56t-99 -153z" />
<glyph unicode="&#xeb;" horiz-adv-x="1148" d="M76 475q-2 112 43 217t121.5 181t181.5 120.5t217 42.5q199 0 325 -124.5t126 -321.5q0 -89 -35 -176h-705q19 -98 89.5 -150.5t185.5 -52.5q149 0 286 94l101 -186q-176 -144 -412 -144q-230 0 -377 140t-147 360zM293 1382q0 67 49.5 113.5t116.5 46.5 q69 0 117.5 -46.5t48.5 -113.5q0 -63 -49.5 -110t-116.5 -47q-66 0 -116 47t-50 110zM356 606h469q-1 97 -57 153t-150 56q-93 0 -163 -56t-99 -153zM801 1382q0 67 49.5 113.5t116.5 46.5q69 0 117.5 -46.5t48.5 -113.5q0 -63 -49.5 -110t-116.5 -47q-63 0 -114.5 48 t-51.5 109z" />
<glyph unicode="&#xec;" horiz-adv-x="550" d="M51 0l178 1014h277l-178 -1014h-277zM152 1548l8 49h321l13 -428h-199z" />
<glyph unicode="&#xed;" horiz-adv-x="550" d="M51 0l178 1014h277l-178 -1014h-277zM295 1169l162 428h352l-8 -49l-295 -379h-211z" />
<glyph unicode="&#xee;" horiz-adv-x="550" d="M12 1169l353 428h180l200 -428h-190l-127 193l-203 -193h-213zM51 0l178 1014h277l-178 -1014h-277z" />
<glyph unicode="&#xef;" horiz-adv-x="550" d="M37 1384q0 67 49.5 113.5t116.5 46.5q68 0 117 -46.5t49 -113.5q0 -66 -49 -112.5t-117 -46.5q-66 0 -116 48t-50 111zM51 0l178 1014h277l-178 -1014h-277zM504 1384q0 67 48.5 113.5t115.5 46.5q69 0 117.5 -46.5t48.5 -113.5q0 -66 -48.5 -112.5t-117.5 -46.5 q-63 0 -113.5 48t-50.5 111z" />
<glyph unicode="&#xf0;" horiz-adv-x="1165" d="M70 426q-3 130 66 242t188 177.5t256 63.5q31 0 41 -2l-111 180l-295 -124l-76 200l258 109l-92 151l227 138l115 -187l332 139l76 -198l-293 -123l127 -207q105 -171 153 -285q45 -105 45 -208q3 -136 -71 -256.5t-201 -192t-270 -68.5q-206 0 -340.5 127t-134.5 324z M348 434q0 -93 60 -153t153 -60q104 0 176 72t72 176q0 91 -61.5 151t-153.5 60q-102 0 -174 -72t-72 -174z" />
<glyph unicode="&#xf1;" horiz-adv-x="1198" d="M53 0l176 1014h254l-16 -90q118 112 287 112q156 0 250 -94q96 -96 96 -246q0 -23 -13 -112l-102 -584h-276l100 563q8 41 8 74q0 74 -47 118t-123 44q-80 0 -139 -49.5t-72 -133.5l-108 -616h-275zM344 1208q12 166 74.5 256t171.5 90q79 0 149 -49l56 -37 q49 -34 77 -34q59 0 74 98h207q-12 -166 -74.5 -256t-171.5 -90q-75 0 -149 47l-56 39q-50 35 -77 35q-60 0 -72 -99h-209z" />
<glyph unicode="&#xf2;" horiz-adv-x="1243" d="M78 483q-3 148 75.5 277t212 204t285.5 72q220 0 370 -146t150 -362q2 -111 -44 -214t-124.5 -178t-186 -119t-222.5 -42q-221 0 -368.5 145.5t-147.5 362.5zM360 485q0 -117 67.5 -188.5t176.5 -71.5q122 0 203.5 86t81.5 213q0 116 -70 190t-180 74q-117 0 -198 -88 t-81 -215zM412 1548l16 49h309l13 -428h-193z" />
<glyph unicode="&#xf3;" horiz-adv-x="1243" d="M78 483q-3 148 75.5 277t212 204t285.5 72q220 0 370 -146t150 -362q2 -111 -44 -214t-124.5 -178t-186 -119t-222.5 -42q-221 0 -368.5 145.5t-147.5 362.5zM360 485q0 -117 67.5 -188.5t176.5 -71.5q122 0 203.5 86t81.5 213q0 116 -70 190t-180 74q-117 0 -198 -88 t-81 -215zM561 1169l223 428h349l-9 -49l-346 -379h-217z" />
<glyph unicode="&#xf4;" horiz-adv-x="1243" d="M78 483q-3 148 75.5 277t212 204t285.5 72q220 0 370 -146t150 -362q2 -111 -44 -214t-124.5 -178t-186 -119t-222.5 -42q-221 0 -368.5 145.5t-147.5 362.5zM317 1169l353 428h180l201 -428h-191l-127 193l-203 -193h-213zM360 485q0 -117 67.5 -188.5t176.5 -71.5 q122 0 203.5 86t81.5 213q0 116 -70 190t-180 74q-117 0 -198 -88t-81 -215z" />
<glyph unicode="&#xf5;" horiz-adv-x="1243" d="M78 483q-3 148 75.5 277t212 204t285.5 72q220 0 370 -146t150 -362q2 -111 -44 -214t-124.5 -178t-186 -119t-222.5 -42q-221 0 -368.5 145.5t-147.5 362.5zM315 1208q12 166 74.5 256t171.5 90q80 0 150 -49l55 -37q49 -34 78 -34q59 0 74 98h206q-12 -167 -74 -256.5 t-171 -89.5q-76 0 -150 47l-55 39q-50 35 -78 35q-60 0 -72 -99h-209zM360 485q0 -117 67.5 -188.5t176.5 -71.5q122 0 203.5 86t81.5 213q0 116 -70 190t-180 74q-117 0 -198 -88t-81 -215z" />
<glyph unicode="&#xf6;" horiz-adv-x="1243" d="M78 483q-3 148 75.5 277t212 204t285.5 72q220 0 370 -146t150 -362q2 -111 -44 -214t-124.5 -178t-186 -119t-222.5 -42q-221 0 -368.5 145.5t-147.5 362.5zM313 1382q0 67 49.5 113.5t116.5 46.5q69 0 117.5 -46.5t48.5 -113.5q0 -63 -49.5 -110t-116.5 -47 q-66 0 -116 47t-50 110zM360 485q0 -117 67.5 -188.5t176.5 -71.5q122 0 203.5 86t81.5 213q0 116 -70 190t-180 74q-117 0 -198 -88t-81 -215zM821 1382q0 67 49.5 113.5t116.5 46.5q69 0 117.5 -46.5t48.5 -113.5q0 -63 -49.5 -110t-116.5 -47q-63 0 -114.5 48t-51.5 109z " />
<glyph unicode="&#xf7;" horiz-adv-x="1146" d="M98 539l41 235h965l-41 -235h-965zM371 270q0 67 48.5 112.5t117.5 45.5q70 0 119 -45.5t49 -112.5q0 -66 -49.5 -111.5t-118.5 -45.5t-117.5 45.5t-48.5 111.5zM506 1040q0 66 48.5 111t117.5 45t118.5 -45t49.5 -111q0 -67 -49 -113t-119 -46q-69 0 -117.5 46 t-48.5 113z" />
<glyph unicode="&#xf8;" horiz-adv-x="1222" d="M25 98l120 113q-77 121 -77 266q-3 146 75 275t211.5 205t284.5 73q158 0 289 -84l121 115l153 -164l-117 -111q74 -115 74 -258q3 -146 -76 -275t-213.5 -205t-285.5 -73q-151 0 -279 78l-127 -121zM332 481q0 -59 18 -108l414 387q-59 35 -133 35q-124 0 -211.5 -92.5 t-87.5 -221.5zM471 238q58 -27 121 -27q126 0 213.5 90t87.5 219q0 48 -16 101z" />
<glyph unicode="&#xf9;" horiz-adv-x="1187" d="M117 375q0 33 10 98l92 541h277l-101 -578q-4 -20 -4 -47q0 -72 50 -118t128 -46t132.5 47t68.5 125l107 617h274l-109 -621q-32 -195 -162 -306.5t-325 -111.5q-194 0 -316 111.5t-122 288.5zM426 1548l16 49h310l12 -428h-193z" />
<glyph unicode="&#xfa;" horiz-adv-x="1187" d="M117 375q0 33 10 98l92 541h277l-101 -578q-4 -20 -4 -47q0 -72 50 -118t128 -46t132.5 47t68.5 125l107 617h274l-109 -621q-32 -195 -162 -306.5t-325 -111.5q-194 0 -316 111.5t-122 288.5zM575 1169l224 428h348l-8 -49l-346 -379h-218z" />
<glyph unicode="&#xfb;" horiz-adv-x="1187" d="M117 375q0 33 10 98l92 541h277l-101 -578q-4 -20 -4 -47q0 -72 50 -118t128 -46t132.5 47t68.5 125l107 617h274l-109 -621q-32 -195 -162 -306.5t-325 -111.5q-194 0 -316 111.5t-122 288.5zM332 1169l352 428h180l201 -428h-191l-126 193l-203 -193h-213z" />
<glyph unicode="&#xfc;" horiz-adv-x="1187" d="M117 375q0 33 10 98l92 541h277l-101 -578q-4 -20 -4 -47q0 -72 50 -118t128 -46t132.5 47t68.5 125l107 617h274l-109 -621q-32 -195 -162 -306.5t-325 -111.5q-194 0 -316 111.5t-122 288.5zM328 1382q0 67 49.5 113.5t116.5 46.5q69 0 117 -46.5t48 -113.5 q0 -63 -49 -110t-116 -47q-66 0 -116 47t-50 110zM836 1382q0 67 49 113.5t116 46.5q69 0 117.5 -46.5t48.5 -113.5q0 -63 -49.5 -110t-116.5 -47q-63 0 -114 48t-51 109z" />
<glyph unicode="&#xfd;" horiz-adv-x="1196" d="M-12 -164l166 182q85 -86 157.5 -123.5t157.5 -37.5q198 0 236 200l10 60q-116 -84 -254 -84q-154 0 -252 94q-96 96 -96 244q0 37 12 108l94 535h275l-95 -529q-6 -42 -6 -57q0 -72 47 -115t125 -43q77 0 137 48t72 128l100 568h277l-172 -965q-35 -204 -172 -323 t-338 -119q-143 0 -269.5 60t-211.5 169zM571 1169l224 428h348l-8 -49l-347 -379h-217z" />
<glyph unicode="&#xfe;" horiz-adv-x="1286" d="M-14 -369l336 1905h276l-106 -602q114 102 282 102q189 0 316 -137t127 -344q0 -161 -71.5 -294t-196.5 -209.5t-275 -76.5q-108 0 -192 38t-134 108l-86 -490h-276zM410 479q0 -113 67.5 -184.5t175.5 -71.5q117 0 198 88t81 217q0 115 -68 189t-174 74 q-118 0 -199 -90.5t-81 -221.5z" />
<glyph unicode="&#xff;" horiz-adv-x="1196" d="M-12 -164l166 182q85 -86 157.5 -123.5t157.5 -37.5q198 0 236 200l10 60q-116 -84 -254 -84q-154 0 -252 94q-96 96 -96 244q0 37 12 108l94 535h275l-95 -529q-6 -42 -6 -57q0 -72 47 -115t125 -43q77 0 137 48t72 128l100 568h277l-172 -965q-35 -204 -172 -323 t-338 -119q-143 0 -269.5 60t-211.5 169zM324 1382q0 67 49 113.5t116 46.5q69 0 117.5 -46.5t48.5 -113.5q0 -63 -49.5 -110t-116.5 -47q-66 0 -115.5 47t-49.5 110zM831 1382q0 67 49.5 113.5t116.5 46.5q69 0 117.5 -46.5t48.5 -113.5q0 -63 -49.5 -110t-116.5 -47 q-63 0 -114.5 48t-51.5 109z" />
<glyph unicode="&#x152;" horiz-adv-x="2252" d="M113 612q-3 152 56.5 294.5t160.5 246t240.5 165t289.5 58.5q164 0 291 -61t195 -170l36 207h912l-45 -250h-633l-47 -277h467l-41 -231h-467l-62 -344h658l-43 -250h-905l28 172q-78 -94 -198.5 -145.5t-266.5 -51.5q-129 -2 -246 47t-201 134.5t-132.5 204.5t-46.5 251 zM397 639q0 -179 113.5 -293.5t288.5 -114.5q197 0 331 142t134 352q0 174 -111 284.5t-285 110.5q-198 0 -334.5 -139.5t-136.5 -341.5z" />
<glyph unicode="&#x153;" horiz-adv-x="1918" d="M78 481q-2 111 42 214.5t119.5 178.5t179.5 119.5t216 42.5q116 0 214 -52.5t165 -147.5q73 95 176.5 147.5t220.5 52.5q195 0 322 -126t127 -322q0 -83 -35 -176h-705q20 -99 90 -150t185 -51q149 0 286 94l101 -184q-190 -146 -410 -146q-124 0 -225.5 51.5 t-167.5 145.5q-73 -93 -176.5 -145t-220.5 -52q-215 0 -359.5 145.5t-144.5 360.5zM360 485q0 -115 65.5 -187.5t168.5 -72.5q115 0 193.5 87t78.5 212q0 116 -66.5 190t-170.5 74q-111 0 -190 -88t-79 -215zM1128 604h465q-2 94 -57 151.5t-147 57.5q-91 0 -161 -57 t-100 -152z" />
<glyph unicode="&#x178;" horiz-adv-x="1277" d="M176 1352h279l221 -537l389 537h319l-610 -828l-92 -524h-276l94 537zM406 1667q0 67 48 113.5t115 46.5q69 0 118.5 -46.5t49.5 -113.5q0 -63 -49.5 -110.5t-118.5 -47.5q-63 0 -113 48.5t-50 109.5zM946 1665q0 67 49.5 114.5t116.5 47.5q68 0 117 -47.5t49 -114.5 q0 -63 -49.5 -110.5t-116.5 -47.5q-66 0 -116 47.5t-50 110.5z" />
<glyph unicode="&#x2c6;" horiz-adv-x="1024" d="M264 1169l352 428h181l200 -428h-190l-127 193l-203 -193h-213z" />
<glyph unicode="&#x2dc;" horiz-adv-x="1024" d="M262 1208q12 166 74.5 256t171.5 90q79 0 149 -49l56 -37q49 -34 78 -34q58 0 73 98h207q-12 -166 -74.5 -256t-171.5 -90q-75 0 -149 47l-55 39q-50 35 -78 35q-60 0 -72 -99h-209z" />
<glyph unicode="&#x2000;" horiz-adv-x="941" />
<glyph unicode="&#x2001;" horiz-adv-x="1882" />
<glyph unicode="&#x2002;" horiz-adv-x="941" />
<glyph unicode="&#x2003;" horiz-adv-x="1882" />
<glyph unicode="&#x2004;" horiz-adv-x="627" />
<glyph unicode="&#x2005;" horiz-adv-x="470" />
<glyph unicode="&#x2006;" horiz-adv-x="313" />
<glyph unicode="&#x2007;" horiz-adv-x="313" />
<glyph unicode="&#x2008;" horiz-adv-x="235" />
<glyph unicode="&#x2009;" horiz-adv-x="376" />
<glyph unicode="&#x200a;" horiz-adv-x="104" />
<glyph unicode="&#x2010;" horiz-adv-x="696" d="M102 541l41 231h512l-41 -231h-512z" />
<glyph unicode="&#x2011;" horiz-adv-x="696" d="M102 541l41 231h512l-41 -231h-512z" />
<glyph unicode="&#x2012;" horiz-adv-x="696" d="M102 541l41 231h512l-41 -231h-512z" />
<glyph unicode="&#x2013;" horiz-adv-x="1024" d="M80 541l43 231h878l-40 -231h-881z" />
<glyph unicode="&#x2014;" horiz-adv-x="2050" d="M111 541l43 231h1843l-43 -231h-1843z" />
<glyph unicode="&#x2018;" horiz-adv-x="618" d="M172 782l211 570h215l-109 -570h-317z" />
<glyph unicode="&#x2019;" horiz-adv-x="618" d="M223 782l109 570h317l-209 -570h-217z" />
<glyph unicode="&#x201a;" horiz-adv-x="618" d="M29 -317l108 569h318l-211 -569h-215z" />
<glyph unicode="&#x201c;" horiz-adv-x="1103" d="M172 782l211 570h215l-109 -570h-317zM657 782l211 570h215l-108 -570h-318z" />
<glyph unicode="&#x201d;" horiz-adv-x="1103" d="M223 782l109 570h317l-209 -570h-217zM709 782l108 570h318l-209 -570h-217z" />
<glyph unicode="&#x201e;" horiz-adv-x="1103" d="M29 -317l108 569h318l-211 -569h-215zM514 -317l109 569h317l-211 -569h-215z" />
<glyph unicode="&#x2022;" horiz-adv-x="874" d="M117 555q0 137 97.5 231.5t236.5 94.5q137 0 233 -94.5t96 -231.5q0 -135 -96 -229.5t-233 -94.5q-138 0 -236 94.5t-98 229.5z" />
<glyph unicode="&#x2026;" horiz-adv-x="1632" d="M39 166q0 80 55.5 135t136.5 55q79 0 134 -55t55 -135q0 -81 -54.5 -136t-134.5 -55q-82 0 -137 54.5t-55 136.5zM569 166q0 80 55.5 135t137.5 55q79 0 133.5 -55t54.5 -135q0 -82 -54 -136.5t-134 -54.5q-82 0 -137.5 54.5t-55.5 136.5zM1098 166q0 80 55.5 135 t136.5 55q79 0 134 -55t55 -135q0 -81 -54.5 -136t-134.5 -55q-82 0 -137 54.5t-55 136.5z" />
<glyph unicode="&#x202f;" horiz-adv-x="376" />
<glyph unicode="&#x2039;" horiz-adv-x="696" d="M63 520l15 74l463 430l157 -162l-331 -315l221 -309l-193 -146z" />
<glyph unicode="&#x203a;" horiz-adv-x="696" d="M23 256l331 315l-221 308l193 145l329 -428l-12 -74l-465 -430z" />
<glyph unicode="&#x205f;" horiz-adv-x="470" />
<glyph unicode="&#x20ac;" horiz-adv-x="1384" d="M-6 414l35 196h168q0 51 10 123h-156l35 197h172q82 200 252 321q171 121 383 121q170 0 301 -67.5t205 -192.5l-199 -141q-47 69 -128.5 108t-178.5 39q-99 0 -183.5 -49.5t-140.5 -138.5h498l-88 -197h-485q-13 -63 -13 -123h441l-88 -196h-314q38 -87 115 -136 t176 -49q85 0 160.5 34t126.5 97l174 -157q-78 -109 -203.5 -168.5t-277.5 -59.5q-216 0 -369 118t-203 321h-225z" />
<glyph unicode="&#x2122;" horiz-adv-x="1978" d="M135 1145l37 207h789l-37 -207h-279l-125 -713h-229l125 713h-281zM932 432l160 936h77l299 -483l484 483h73l-163 -936h-232l72 406l-238 -242h-73l-158 252l-72 -416h-229z" />
<glyph unicode="&#x25fc;" horiz-adv-x="1013" d="M0 0v1014h1014v-1014h-1014z" />
</font>
</defs>
</svg>
